<mxfile host="65bd71144e" compressed="true">
    <diagram id="2tS7TQzlU942Rb8Wmt11" name="API Management">
        <mxGraphModel dx="2853" dy="1863" grid="1" gridSize="10" guides="1" tooltips="1" connect="1" arrows="1" fold="1" page="1" pageScale="1" pageWidth="1169" pageHeight="827" math="0" shadow="0">
            <root>
                <mxCell id="0"/>
                <mxCell id="1" parent="0"/>
                <mxCell id="u6aW30XyLuBGbmjHWJuR-44" value="Network" style="endArrow=none;html=1;fontColor=#7F7F7F;labelBackgroundColor=none;strokeWidth=4;sketch=0;shadow=0;anchorPointDirection=1;editable=1;orthogonalLoop=0;comic=0;noJump=0;backgroundOutline=0;metaEdit=0;fixDash=0;fontStyle=1;jumpStyle=gap;strokeColor=#7F7F7F;endSize=3;startSize=3;jumpSize=3;rounded=0;fontFamily=Arial;fontSize=12;" parent="1" edge="1">
                    <mxGeometry x="0.9661" y="30" width="50" height="50" relative="1" as="geometry">
                        <mxPoint x="754" y="710" as="sourcePoint"/>
                        <mxPoint x="754" y="110" as="targetPoint"/>
                        <mxPoint as="offset"/>
                        <Array as="points">
                            <mxPoint x="754" y="320"/>
                        </Array>
                    </mxGeometry>
                </mxCell>
                <mxCell id="u6aW30XyLuBGbmjHWJuR-45" value="&lt;p style=&quot;margin-top: 6pt ; margin-bottom: 0pt ; margin-left: 0in ; direction: ltr ; unicode-bidi: embed ; vertical-align: baseline ; word-break: normal ; font-size: 14px&quot;&gt;&lt;br&gt;&lt;/p&gt;" style="rounded=0;whiteSpace=wrap;html=1;align=left;fontStyle=1;verticalAlign=top;strokeColor=#0A6ED1;fillColor=none;strokeWidth=2;fontSize=14;fontFamily=Arial;container=1;recursiveResize=0;collapsible=0;fontColor=#595959;" parent="1" vertex="1">
                    <mxGeometry x="164" y="150" width="550" height="570" as="geometry"/>
                </mxCell>
                <mxCell id="u6aW30XyLuBGbmjHWJuR-46" value="&lt;p style=&quot;margin-top: 0pt; margin-bottom: 0pt; margin-left: 0in; direction: ltr; unicode-bidi: embed; word-break: normal; font-size: 15px;&quot;&gt;&lt;b style=&quot;font-size: 15px;&quot;&gt;Subaccount&lt;/b&gt;&lt;/p&gt;" style="rounded=0;whiteSpace=wrap;html=1;strokeColor=#074D92;strokeWidth=2;fillColor=none;align=left;verticalAlign=top;fontSize=15;fontFamily=Arial;container=1;recursiveResize=0;collapsible=0;fontColor=#053B70;spacingLeft=6;" parent="u6aW30XyLuBGbmjHWJuR-45" vertex="1">
                    <mxGeometry x="15.75" y="80" width="514.25" height="470" as="geometry"/>
                </mxCell>
                <mxCell id="QRWAaMgFSjCzo6saS06B-1" value="&lt;p style=&quot;margin-top: 0pt ; margin-bottom: 0pt ; margin-left: 0in ; direction: ltr ; unicode-bidi: embed ; word-break: normal ; font-size: 11px&quot;&gt;&lt;br&gt;&lt;/p&gt;" style="rounded=0;whiteSpace=wrap;html=1;strokeColor=#053b70;strokeWidth=2;fillColor=none;align=left;verticalAlign=top;fontSize=11;fontFamily=Arial;container=1;recursiveResize=0;collapsible=0;fontColor=#595959;" parent="u6aW30XyLuBGbmjHWJuR-46" vertex="1">
                    <mxGeometry x="194.25" y="36.82" width="251.25" height="213.18" as="geometry"/>
                </mxCell>
                <mxCell id="QRWAaMgFSjCzo6saS06B-2" style="edgeStyle=none;rounded=0;orthogonalLoop=1;jettySize=auto;html=1;entryX=0;entryY=0.5;entryDx=0;entryDy=0;dashed=1;startArrow=classic;startFill=1;endArrow=classic;endFill=1;strokeColor=#C0399F;strokeWidth=1;fontSize=16;" parent="QRWAaMgFSjCzo6saS06B-1" edge="1">
                    <mxGeometry relative="1" as="geometry">
                        <mxPoint x="377" y="77" as="sourcePoint"/>
                        <mxPoint x="377" y="77" as="targetPoint"/>
                    </mxGeometry>
                </mxCell>
                <mxCell id="QRWAaMgFSjCzo6saS06B-3" value="&lt;span style=&quot;color: rgba(0, 0, 0, 0); font-family: monospace; font-size: 0px; text-align: start;&quot;&gt;%3CmxGraphModel%3E%3Croot%3E%3CmxCell%20id%3D%220%22%2F%3E%3CmxCell%20id%3D%221%22%20parent%3D%220%22%2F%3E%3CmxCell%20id%3D%222%22%20value%3D%22%26lt%3Bb%26gt%3B%26amp%3Bnbsp%3B%26lt%3B%2Fb%26gt%3B%26lt%3Bspan%20style%3D%26quot%3Bfont-weight%3A%20bold%26quot%3B%26gt%3BSubaccount%26lt%3B%2Fspan%26gt%3B%26lt%3Bb%26gt%3B%26lt%3Bbr%26gt%3B%26lt%3B%2Fb%26gt%3B%22%20style%3D%22rounded%3D0%3BwhiteSpace%3Dwrap%3Bhtml%3D1%3BstrokeColor%3D%23074D92%3BstrokeWidth%3D2%3BfillColor%3Dnone%3Balign%3Dleft%3BverticalAlign%3Dtop%3BfontSize%3D11%3BfontFamily%3DArial%3Bcontainer%3D0%3BrecursiveResize%3D0%3Bcollapsible%3D0%3BfontColor%3D%23595959%3B%22%20vertex%3D%221%22%20parent%3D%221%22%3E%3CmxGeometry%20x%3D%22170%22%20y%3D%22186%22%20width%3D%22910%22%20height%3D%22520%22%20as%3D%22geometry%22%2F%3E%3C%2FmxCell%3E%3CmxCell%20id%3D%223%22%20value%3D%22%22%20style%3D%22shape%3Dimage%3BverticalLabelPosition%3Dbottom%3BlabelBackgroundColor%3D%23ffffff%3BverticalAlign%3Dtop%3Baspect%3Dfixed%3BimageAspect%3D0%3Bimage%3Ddata%3Aimage%2Fpng%2CiVBORw0KGgoAAAANSUhEUgAAANYAAAAeCAYAAABQWOD3AAAQuUlEQVR4Ae1cC7RVxXk%2B%2BKiRtDaJbZJiTEmkQC964dx99p7%2FMftw5D4Ag7Y20nfTpImmqzElUZtlUmzq0lRqFKJBDC5RqaJI1NgFwZVYpVpDtEHlYZSHKK%2BgEsFC8BFBd9d33HPdZ9%2B9zzn3wpV11zpnrVmzZ%2Baff2b%2BPd88%2Fv%2Ffp1Bo%2FVoSaEngvZGAMeYjzHw2M88QkQuCIPgLZh6V17ox5oRSqXRGXnl%2F8plZmPl8Zr5CRL5ljDnP9%2F0JzfAQkQkdHR3tzdCWSqUKM5%2BUpg2CgJl5SjKUSqWpvu%2BXPc%2F7eJq%2BUXrUqFHH%2Bb4vfhM%2FVS1NnTr1uEY8gyCYLCI3MPMeEYmY%2BTUiuiMIgumFQuHoRvWJqAPdMcZ49WjPO%2B%2B8Y123S6XSmCxazBXf9yeqqs0qd3mq%2BnFjzOmg9X3%2Fky7fxZ7nDY%2FLy5B1Ikxk5kBEft%2FRNoqNMW14vwkevfyYeSLGr6q%2FlcenWCz%2BLhFV66NPY8aMyaUFjyAISq4tEZnUh2%2BxWGwTkYfCMIzCMFzLzEtF5D%2BttT8VkbdFZIPv%2B53pihj4xIkTo3R%2Bf9LxRN6uqq%2BJyMNEdCczf99a%2B6i1NlLVHR0dHZPr8TTGLFfV2%2BrRuDIi2m2M%2BTuXdrG19nFVfdVai77sSITdkIuI7PZ9f0ahUBjm6tSLsSB1dnZCnk2FIAhG5%2FHzPM8y8y8gDwAqHeL8V0ul0qfzeCBfVd8CrbX24PTp03OB2N7e%2FjHXb1V9NIsnEX2hXC5Xx0ZE87JokOf7%2FqWYI%2BDHzN9N06nquEqlUldGzPwqEV3d3t7%2B4XT9ZFpElro%2Buf4nY5TFsvpxEASfSNbFs%2Bd5x4rILtSJaX%2BSpnFpLBKON2iZ%2BVJXVo2NMX%2BOAiK6vq2t7TdqCuMEEV2gqm8GQXB1shwrbblcPpDM68fzMCL6V2vt28aYy%2FLqEdFlGAB2sTwaZr5bVW%2FOK0%2FmG2O2BUHwmWQenjGBVLVWODER5GKM%2BQeATkRexGqdrp9Oi8gpmDBpEGSlwzB8HfRpHkjjRJAEFDNjsfklMz%2Bnqi8w81uOJ%2BiI6NosPshT1V%2FFtHvrAatYLI5wPFV1RRY%2FIvqsqvaOz%2Ff9M3Po%2Fhn9Ai0zz07TENEfxu%2B3l5drOyN%2BEztSmodLqyrmQS8fPCdDkh%2Fa9DzvNFc3joeJiB9vJlUQ5o1LRHY6fkT00xo%2B2O4AqmKx2FVTkJHwPO%2F3mLlm5zgUYBlj%2FqZcLr%2BB7TmjuZosHKkgIGPM52oK4sThAhYzX5nFP5lHRP%2BDIxgzH5%2FMTz8ngcXMe3FkI6IlOeGOLLDiqJEElarez8w1kwHHVOzyInIALxpyIqKZ6f4gPZjAwm6YtQsQUdPAIqJdxpg5RHSNMQZhgYjg1ISFpwoYtDN%2B%2FPhxOeOrAgsywJwQkcuxILtARDdhYUzw2o0je5oXEc0Cj5hub5rGGHNlgsdBHCFreIjIviAIvlGT2Y%2FEQIEVBMGJqvrrIAjOb7Y5HD3CMNyLe126znsJLLSNnYuIbkn3I5lOAktVNyTLmnlub29%2FPzO%2FEL%2FAt4Mg%2BOI79aJhPHv78Wffs%2BPEM%2BfvHF4oRNWjKe6DzPxr0OMU4Hne2HQ7gwmsuJ%2Bvp%2B8l%2FQEWMz%2BR7jPS48ePPwnXETeZReSpLDq3Y2GzCMPwnCyaQqFwFDO%2FAl6gK5VKQRadMeZ50MQgvd3RYAF0ixgWvSAIprmyamyM%2BbS19pWazH4mBgos3HGstS%2F2pzmsGtZaHH363I%2Fea2AFQTAekxcLRN4YksCy1gJYTd3NHD%2Ff9%2F%2FarZqqegXyOxfuOPGMe3Z854y7tr1%2B1tJd0bQfbD9w5r0v3TxtyfaqMgaLj5t8RHR%2Fus1BBBbux26FfzJ5zOwPsEQkE1gYO3YFZn4D7eCOCCWDk5WLmwRWgZmxw7vd%2Fc9c%2FWTs%2B%2F44VYV%2BAXRvqSqUOMNw102M9fvJOtVnZl5ERIv6FPQjY6DAUlUciW7qR1NVUiK6jplXpuu918DCqofd0%2FO809N9cekMYLmihjEmJjOvcC%2FV87zfNtduOuFTd%2B%2FcOWXxlmjK4ueiqXc%2B%2F05YsiU6a%2BmufVMXbzoFd0ER2Yp6AP6ECRM%2BkGxssIDFzN9R1d1uwuEY59o9XMACPyL6pltsmHm%2Ba8PFzQKLiJbHMsJi8EeufjoWkZluTBifMeZCl2bm%2FW1tbb%2BZroPz9v5Yy9WnrNmMgQALL99a%2BxQR%2FWOz7Tg6qJWxa7m0i48AsLDqbe6jCXIdKhQKSWCp6laouKFFTQciMqBNVIV2arg71jHzRpR13%2FrsnVNufy7quXVT1HPbs9UwedHmaPLtm6Mq2JZsrWqwoITC5MPlHKtuku9gAYuIZp966qknq%2BpBN%2FF83%2F9TtH2YgVXB8Q1tMPN%2FJ8eG5ySwiOhP0uVI447KzNU7G7SVaRml6mCB2%2BTG5GLI1xiTbd7B%2BTBPGZBinpscCLBGjhz5PlV9HseWXMY5BaVSqTsMw13p4iMBLCJahR003ReXTgIrfiHQ3vUJ8QpcYyqArSXOxySqAqZn4XMbu2%2FZGHXfsqEaehZujHr%2B490w7d4XX5i6PDqOmb%2BEurHSw3f9QTyYwAJ%2FTGY3%2BUTkIDMXjTFfR1%2FQpya0grlHQfCHXdMBK8sM4IAVyw5mIyh7%2FisO9%2BOdufsR%2BsnMjyaPrUlZuWfY4ZKa17jev7nyPrGqvnQoigswHAiwYlvBz7CS9elUgwyoeJl5e5rsSABLRH7BzBen%2B%2BLSaWDhZWcFTDpm7r0coz6OGFCrx5N0NfJ6btq4suvG9VHXjU9H3QueeSfctD7qRrh5QzRl0dbNoCOiy9FOvGPVGNgdsFR1X70JBaOsA4iqPujGlIyT6nbsWK5MROYl6u4KguDfDxewYCB3qnmAxbXpYgcs135eDPkw89N9tHmOUSr2fT95BHwZczhF8m7SGPM9Irrv3Zz%2BPw0EWGhFROaLyLL%2BtigidxHRPel6xpi7mrVjEREWlEw7VjPqdrRdqVSOKZfLrxljKN0Xl04CC%2FYmKGyI6Nx0YOYvBkFQY7WP70rr44nxGl7kxOvWnNm9YP2Bzu%2Bti7puQPh5b5i8cHPUteCZc9G2iDyJepiA0Ka5%2FiBm5pfdZMPJIVmWfIaXhKNT1cx7eB6wYq0bdga3MFQ1lfFk7gWgay9lx6q7Y6nqXPAFLxiMHQ8Xp4D1srV2GwIz9x5RjTE7jTHn1Bu%2F4%2BdiY8wfoE20HSuFXFHf2Pf9LhDjJfYtbS5noMCCt0UYhm%2FUcy9J94CZP2St3W%2BM6UmXwXCNCYWXmi5LpuP73etEpMl8PONo0SywiOhvcZ%2Bo1%2F8ksKy169PtNUoz87%2B4SQQNLugnzX3qC53z1h7ovG5N1DlvbdQ5b03UdcPTUdf8p6u7f6lUKjrjJnb29K7EzKvwzgE6Y0zupd0Yc68DBgzjWX2tA6zCqFGjTlDVXnuRG8ehHAWhFk9o6Q5k3Y0csHBchJ20Uql8AAoc3%2Fc%2F54ChqrCdZhqzs8aJPGgEXf2snbJPPVyMYVzsU9BkxiEA63gReYaZFzbZFI4416rqpkKh0Gcbhp8ghOn7%2Fsn1%2BDHzWGvtW7ARpemaBVZbW9tHwzDcn2eEdXxTwBqIuv3kxH3gV84uNemaJ2d3zV0bdV77RNR9%2Fbro9Lmrq%2Fcz2FeYudf2knV5N8Zc4iaIqm72ff%2Bjrr8u9jyvQ0TeBBgg046Ojkxf0XrAAi8oa1S1arRuFlhZdiwsqABJcrfNm9xJYKXtWLjrubFbawGuPourk0E67jewoNmIBw93oVzfMTQEjRzUnclGBwqsmB9j12Lmf0ryzHqGmhM7RD1hiMj%2Fwlcs7%2FwLw6WIbMRxMquNZoAFAEPDx8xQKNSV16ECC300xlzkJgOMotAW9nx7zfu7vrvm5UlzVkVdc1cfKF%2F2WNXnjYh%2B7GhV9ZH0bgV%2B2LFVdZub6CICQ%2Fc3YeTEDkZEV0FbjHIEXP6zZIW8RsCKac5N9An86h4FiWhfSuGwEvJ2%2FYl57UwfcV0f6wELNMxcPUrG49%2BXtes5Xsm438BC5fg8Dd%2Bzx4IgOBsuMjjixF7HWAXhwQxXkT1BEHw%2B2SBcbsrl8kG4O8GdJS%2Fk7SRBEPyxqv4f7luxBgleFZiwR1lrPwhXJhG5FzSxB3ey%2BZrn0aNHn4SXoKoPwFM9HsOx4APXLVVdJyLrRowYMbymYpyIgXU9xu%2FGAUdL3AFE5FNEdDMchYno7qwdL83zcACrUCgcE7db1fIRUdWY2XnVqmVds1dF3desrvqoxbuD07yt9zzvd9L9cWl4rcOtJznh8exCPOkArA3jxo37kKuXjpsBFurAG9%2B11QhYDkDp2PUNc9Tt3On%2BIN0IWLGB9weOP3wui8ViQ%2B%2F5AQELHcKRwFp7NazK8QrxDBH93Fq7GauaiCzI8r6Gnx%2F8%2FVR1i7V2a17AbpIlCOThswRr7SLYp%2BD6Y4x5nJkfF5FnMQGstXfUE2aSL7yfVXUheInIeiJaLSKbYt5z0u42ybrQfllrf5kaAzzdYWnfAYDjbpisU%2B%2BZiEbGstljrf1ZPdoGZUfBe1xVYXupWvo7Z%2F3k6p7ZT0STZq2sKhaYuXrMwcQaO3ZsrjeIayfW%2Bt2mqrsSQAKY3oaixVp7HYzSjj4rJqK%2FgueOqr4C37osGuThBKGqD4vIXmbuo6bG%2By%2BXy%2BCzJyPswtxi5h8x82cqlUquwgVticitWITDMIQnSOYdEh48ULO7tph5TZabXHI8UF7EY91DREuTZU09YyXGNy34xsRaW4HrzmmnnfbBvMr4hggrOoRTL2R9h5PmiZUDOwtWZQRjjMVOmKZrJq2qI7ATM%2FM0fHIRhmGtk2QGE9grssYAgOAynlGlUdYx%2BHQEu1%2Fejt2IQbIcx24i%2BjJW3cqlD83qunJVNOnyR6oe%2FdZafDdX4yCdrJv3jCMVXIOgJTXGwIUqzLp3ZdWHSSAe2ydxD8qicXlY0DzPOyWLDsDD7u5OCS7GnDHGfKwRwF0biHHPRD3IHSeuZFnyGX0HHdoCaBoBFn109M3KJ9le63mISMDOXDFr0hWPRZVLH6rrCDxEhtPqZksCR1YCOMZMLxSOtjNXXHX6ZSsjO%2FOB6lEw%2FVnDke1lq%2FWWBIaABHDcxlElVlCsM177ReElj8wJZz4UlS95eIkUx5xjrV0NnQTuCrFipa49bwgMu9XFlgQGTwJBEPx9GIZQ6uA%2FLuBneFf7KR%2F5sF78wK168YNR%2BPUHfzSiUBiuqrDxwXSxP3Zb6vUuH7zetTi3JDA0JYC%2FLlgMrZ0xBuaG0YXC9KN1xn2fl68u36IX3hfJhfe9JBf88ILKZ1e8Dyp2Zl4LeiLaBkXM0Bx2q9ctCQySBIjoG0mXIGPMVWiqPGPpNZWL7o%2FCGcsi%2B5V3wsSvPRjpV5cvQTk%2B1Yi92qE6fxPGYPg1DlI3W2xbEhhSEhgGUwMz35gwrO4vFosljEK%2B9MNyZcayWeUvL10cfmX5nPD8ZZO9%2BdGx8Y61xRk%2F4TEPA34j%2F8khJZlWZ1sSOFQJwCUJrlMOKLHfID63ubxEpbMC1RCfURDR1%2BKvjV91tPE%2FX2V%2FiHeoHWvVb0lgKEsg9mqp%2BuzheAePdLeDpWMACuUugJ6I1rR2q6E8A1p9HzQJxN4js%2FGJD9Tp8EjBp%2BIOWAAUQIQ7GHwtJ0yYMBK%2BgMz8l42chAet0y3GLQkMVQmICHwg3Q6W%2B0emQ3V8rX63JNCSQEsCNRL4f826WDz1IoxRAAAAAElFTkSuQmCC%3B%22%20vertex%3D%221%22%20parent%3D%221%22%3E%3CmxGeometry%20x%3D%22175.5%22%20y%3D%22211%22%20width%3D%22120%22%20height%3D%2216.82%22%20as%3D%22geometry%22%2F%3E%3C%2FmxCell%3E%3C%2Froot%3E%3C%2FmxGraphModel%3E&lt;/span&gt;" style="edgeLabel;html=1;align=center;verticalAlign=middle;resizable=0;points=[];fontSize=12.5;fontColor=#808080;labelBackgroundColor=none;" parent="QRWAaMgFSjCzo6saS06B-1" vertex="1" connectable="0">
                    <mxGeometry x="46.000000000000114" y="1" as="geometry">
                        <mxPoint x="6" y="6" as="offset"/>
                    </mxGeometry>
                </mxCell>
                <mxCell id="Xo-5ERLmSCqsP6Ov1QiX-8" value="&lt;font color=&quot;#053b70&quot;&gt;&lt;b&gt;SAP API Management&lt;br&gt;&lt;/b&gt;&lt;/font&gt;" style="text;whiteSpace=wrap;html=1;fontSize=15;align=center;" parent="QRWAaMgFSjCzo6saS06B-1" vertex="1">
                    <mxGeometry x="43.69" y="86.59" width="163.88" height="40" as="geometry"/>
                </mxCell>
                <mxCell id="Xo-5ERLmSCqsP6Ov1QiX-7" value="" style="shape=image;verticalLabelPosition=bottom;verticalAlign=top;imageAspect=0;aspect=fixed;image=data:image/svg+xml,PHN2ZyB4bWxucz0iaHR0cDovL3d3dy53My5vcmcvMjAwMC9zdmciIGlkPSJhcGktbWFuYWdlbWVudCIgdmlld0JveD0iMCAwIDU2IDU2Ij48ZGVmcz48c3R5bGU+LmNscy0xe2ZpbGw6IzA3NGQ5Mjt9LmNscy0ye2ZpbGw6IzA1M2I3MDt9LmNscy0ze2ZpbGw6IzBhNmVkMTt9PC9zdHlsZT48L2RlZnM+PHRpdGxlPmFwaS1tYW5hZ2VtZW50X2NpcmNsZTwvdGl0bGU+PHBhdGggY2xhc3M9ImNscy0xIiBkPSJNMjgsNkEyMiwyMiwwLDEsMSw2LDI4LDIyLjAyNSwyMi4wMjUsMCwwLDEsMjgsNm0wLTJBMjQsMjQsMCwxLDAsNTIsMjgsMjQsMjQsMCwwLDAsMjgsNFoiLz48cGF0aCBjbGFzcz0iY2xzLTIiIGQ9Ik0yOC4yMjUsMjkuOTc4YTguMzUyLDguMzUyLDAsMCwxLTEuNTItLjg4OWwtMy4zODksNC40ODJhNC40NjMsNC40NjMsMCwwLDAtMS42OTQtLjMyOEE0LjM3NCw0LjM3NCwwLDEsMCwyNiwzNy42MTZhNC4xMiw0LjEyLDAsMCwwLTEuMjU3LTMuMDYxWm0tNi42LDEwLjI2M2EyLjYyNSwyLjYyNSwwLDEsMSwyLjYyNC0yLjYyNUEyLjU5MSwyLjU5MSwwLDAsMSwyMS42MjIsNDAuMjQxWiIvPjxwYXRoIGNsYXNzPSJjbHMtMiIgZD0iTTIwLjc0NywyNy4yM2MwLS4xNjQsMC0uMzI4LS4wNTUtLjM4M2wzLjUtLjcxMS0uMDItLjA1MWMtLjIzMi0uNDY1LS40LTEuMTkyLS41ODQtMS42NjJsLS4wNTIuMDE5LTMuMzM1LjcxQTQuMzE3LDQuMzE3LDAsMCwwLDE2LjM3MywyMi44LDQuNCw0LjQsMCwwLDAsMTIsMjcuMjNhNC4zNzQsNC4zNzQsMCwwLDAsOC43NDcsMFpNMTYuMzczLDI5LjhhMi41NDUsMi41NDUsMCwwLDEtMi42MjQtMi41NjksMi42MjUsMi42MjUsMCwxLDEsNS4yNDksMEEyLjU0NiwyLjU0NiwwLDAsMSwxNi4zNzMsMjkuOFoiLz48cGF0aCBjbGFzcz0iY2xzLTIiIGQ9Ik0zNS44OSwzMy4yNDNoLS41NDdMMzQuNTE4LDMwLjJhOC4yODEsOC4yODEsMCwwLDEtMS43LjQyNmwuODI5LDMuMTEzYTQuMzYsNC4zNiwwLDAsMCwxLjY5NCw4LjI1NSw0LjM4Miw0LjM4MiwwLDAsMCwuNTQ3LTguNzQ3Wm0yLjM1MSw0LjUzOGEyLjY2NiwyLjY2NiwwLDAsMS0yLjc4OSwyLjQ2LDIuNjMsMi42MywwLDEsMSwyLjc4OS0yLjQ2WiIvPjxwYXRoIGNsYXNzPSJjbHMtMyIgZD0iTTI4LjIzNiwyOS45NjNhOC4yNzcsOC4yNzcsMCwwLDAsMy4zOS43NjUsOC4xMzEsOC4xMzEsMCwwLDAsMS4yLS4xMDloMGE4LjM1NCw4LjM1NCwwLDEsMC05LjU2OC04LjI1Niw5LjQ0NSw5LjQ0NSwwLDAsMCwuMjc0LDIuMDc4bC4wNjMuMjU5YTcuNTQsNy41NCwwLDAsMCwuNTczLDEuMzg0bC4wMi4wNTFhOC4yMzQsOC4yMzQsMCwwLDAsMi41MTUsMi45NTJoMEE4LjM3NSw4LjM3NSwwLDAsMCwyOC4yMzYsMjkuOTYzWm0xLjc1LTMuOTkxSDMzLjMyYTYuODEyLDYuODEyLDAsMCwxLTEuNjk0LDIuNTdBNi41LDYuNSwwLDAsMSwyOS45ODYsMjUuOTcyWm0tLjQzOC0xLjY5NGE3LjM0Nyw3LjM0NywwLDAsMS0uMjE4LTEuOTE0LDguNDQ3LDguNDQ3LDAsMCwxLC4xNjQtMS43aDQuMzE5Yy4wNTQuNi4xMDksMS4wOTQuMTA5LDEuN2ExMC40MzksMTAuNDM5LDAsMCwxLS4xNjQsMS45MTRabTMuMjI2LDQuNjQ2YTguNjE2LDguNjE2LDAsMCwwLDEuNjQtMi45NTJoMi44NDJBNi45MzIsNi45MzIsMCwwLDEsMzIuNzc0LDI4LjkyNFptNS4zLTguMjU1YTUuMzE3LDUuMzE3LDAsMCwxLC4yMTgsMS43LDguMDgyLDguMDgyLDAsMCwxLS4yNzMsMS45MTRIMzQuOGExMC4zNTIsMTAuMzUyLDAsMCwwLC4xNjQtMS45MTRjMC0uNi0uMDU0LTEuMDkzLS4xMDktMS43Wm0tLjcxMS0xLjYzOWgtMi45QTcuMzQxLDcuMzQxLDAsMCwwLDMyLjcxOSwxNS44LDYuODE2LDYuODE2LDAsMCwxLDM3LjM2NiwxOS4wM1ptLTMuOTkxLDBIMjkuOTMxYTcuMjYyLDcuMjYyLDAsMCwxLDEuNy0yLjlBNi42NjQsNi42NjQsMCwwLDEsMzMuMzc1LDE5LjAzWk0zMC41MzIsMTUuOGE5LjQsOS40LDAsMCwwLTEuNzQ5LDMuMjI2aC0yLjlBNi45MzMsNi45MzMsMCwwLDEsMzAuNTMyLDE1LjhabS01LjI0OCw4LjQ3NGE1LjQyOCw1LjQyOCwwLDAsMS0uMzI4LTEuOTE0LDYuMDIxLDYuMDIxLDAsMCwxLC4yMTktMS43aDMuMjhhOC41Miw4LjUyLDAsMCwwLS4xNjQsMS43LDEwLjQzOSwxMC40MzksMCwwLDAsLjE2NCwxLjkxNFptLjc2NiwxLjY5NGgyLjc4OGE5LjYsOS42LDAsMCwwLDEuNjQsMi45NTJBNi44MTYsNi44MTYsMCwwLDEsMjYuMDUsMjUuOTcyWiIvPjwvc3ZnPg==;fontSize=15;strokeColor=#074D92;" parent="QRWAaMgFSjCzo6saS06B-1" vertex="1">
                    <mxGeometry x="97.63" y="32.18000000000001" width="56" height="56" as="geometry"/>
                </mxCell>
                <mxCell id="CEQAaOpmtx5C-81C31OT-2" value="&lt;p style=&quot;margin-top: 0pt; margin-bottom: 0pt; margin-left: 0in; direction: ltr; unicode-bidi: embed; word-break: normal;&quot;&gt;&lt;span style=&quot;font-size: 14px;&quot;&gt;&lt;b&gt;API Business Hub Enterprise&lt;/b&gt;&lt;/span&gt;&lt;/p&gt;" style="rounded=0;whiteSpace=wrap;html=1;strokeColor=#595959;strokeWidth=2;fillColor=none;align=center;verticalAlign=top;fontSize=11;fontFamily=Arial;container=1;recursiveResize=0;collapsible=0;fontColor=#595959;" parent="QRWAaMgFSjCzo6saS06B-1" vertex="1">
                    <mxGeometry x="16.259999999999998" y="143.18" width="218.75" height="35" as="geometry"/>
                </mxCell>
                <mxCell id="u6aW30XyLuBGbmjHWJuR-47" style="edgeStyle=none;rounded=0;orthogonalLoop=1;jettySize=auto;html=1;entryX=0;entryY=0.5;entryDx=0;entryDy=0;dashed=1;startArrow=classic;startFill=1;endArrow=classic;endFill=1;strokeColor=#C0399F;strokeWidth=1;fontSize=16;" parent="u6aW30XyLuBGbmjHWJuR-46" edge="1">
                    <mxGeometry relative="1" as="geometry">
                        <mxPoint x="377" y="77" as="sourcePoint"/>
                        <mxPoint x="377" y="77" as="targetPoint"/>
                    </mxGeometry>
                </mxCell>
                <mxCell id="u6aW30XyLuBGbmjHWJuR-56" value="&lt;span style=&quot;color: rgba(0, 0, 0, 0); font-family: monospace; font-size: 0px; text-align: start;&quot;&gt;%3CmxGraphModel%3E%3Croot%3E%3CmxCell%20id%3D%220%22%2F%3E%3CmxCell%20id%3D%221%22%20parent%3D%220%22%2F%3E%3CmxCell%20id%3D%222%22%20value%3D%22%26lt%3Bb%26gt%3B%26amp%3Bnbsp%3B%26lt%3B%2Fb%26gt%3B%26lt%3Bspan%20style%3D%26quot%3Bfont-weight%3A%20bold%26quot%3B%26gt%3BSubaccount%26lt%3B%2Fspan%26gt%3B%26lt%3Bb%26gt%3B%26lt%3Bbr%26gt%3B%26lt%3B%2Fb%26gt%3B%22%20style%3D%22rounded%3D0%3BwhiteSpace%3Dwrap%3Bhtml%3D1%3BstrokeColor%3D%23074D92%3BstrokeWidth%3D2%3BfillColor%3Dnone%3Balign%3Dleft%3BverticalAlign%3Dtop%3BfontSize%3D11%3BfontFamily%3DArial%3Bcontainer%3D0%3BrecursiveResize%3D0%3Bcollapsible%3D0%3BfontColor%3D%23595959%3B%22%20vertex%3D%221%22%20parent%3D%221%22%3E%3CmxGeometry%20x%3D%22170%22%20y%3D%22186%22%20width%3D%22910%22%20height%3D%22520%22%20as%3D%22geometry%22%2F%3E%3C%2FmxCell%3E%3CmxCell%20id%3D%223%22%20value%3D%22%22%20style%3D%22shape%3Dimage%3BverticalLabelPosition%3Dbottom%3BlabelBackgroundColor%3D%23ffffff%3BverticalAlign%3Dtop%3Baspect%3Dfixed%3BimageAspect%3D0%3Bimage%3Ddata%3Aimage%2Fpng%2CiVBORw0KGgoAAAANSUhEUgAAANYAAAAeCAYAAABQWOD3AAAQuUlEQVR4Ae1cC7RVxXk%2B%2BKiRtDaJbZJiTEmkQC964dx99p7%2FMftw5D4Ag7Y20nfTpImmqzElUZtlUmzq0lRqFKJBDC5RqaJI1NgFwZVYpVpDtEHlYZSHKK%2BgEsFC8BFBd9d33HPdZ9%2B9zzn3wpV11zpnrVmzZ%2Baff2b%2BPd88%2Fv%2Ffp1Bo%2FVoSaEngvZGAMeYjzHw2M88QkQuCIPgLZh6V17ox5oRSqXRGXnl%2F8plZmPl8Zr5CRL5ljDnP9%2F0JzfAQkQkdHR3tzdCWSqUKM5%2BUpg2CgJl5SjKUSqWpvu%2BXPc%2F7eJq%2BUXrUqFHH%2Bb4vfhM%2FVS1NnTr1uEY8gyCYLCI3MPMeEYmY%2BTUiuiMIgumFQuHoRvWJqAPdMcZ49WjPO%2B%2B8Y123S6XSmCxazBXf9yeqqs0qd3mq%2BnFjzOmg9X3%2Fky7fxZ7nDY%2FLy5B1Ikxk5kBEft%2FRNoqNMW14vwkevfyYeSLGr6q%2FlcenWCz%2BLhFV66NPY8aMyaUFjyAISq4tEZnUh2%2BxWGwTkYfCMIzCMFzLzEtF5D%2BttT8VkbdFZIPv%2B53pihj4xIkTo3R%2Bf9LxRN6uqq%2BJyMNEdCczf99a%2B6i1NlLVHR0dHZPr8TTGLFfV2%2BrRuDIi2m2M%2BTuXdrG19nFVfdVai77sSITdkIuI7PZ9f0ahUBjm6tSLsSB1dnZCnk2FIAhG5%2FHzPM8y8y8gDwAqHeL8V0ul0qfzeCBfVd8CrbX24PTp03OB2N7e%2FjHXb1V9NIsnEX2hXC5Xx0ZE87JokOf7%2FqWYI%2BDHzN9N06nquEqlUldGzPwqEV3d3t7%2B4XT9ZFpElro%2Buf4nY5TFsvpxEASfSNbFs%2Bd5x4rILtSJaX%2BSpnFpLBKON2iZ%2BVJXVo2NMX%2BOAiK6vq2t7TdqCuMEEV2gqm8GQXB1shwrbblcPpDM68fzMCL6V2vt28aYy%2FLqEdFlGAB2sTwaZr5bVW%2FOK0%2FmG2O2BUHwmWQenjGBVLVWODER5GKM%2BQeATkRexGqdrp9Oi8gpmDBpEGSlwzB8HfRpHkjjRJAEFDNjsfklMz%2Bnqi8w81uOJ%2BiI6NosPshT1V%2FFtHvrAatYLI5wPFV1RRY%2FIvqsqvaOz%2Ff9M3Po%2Fhn9Ai0zz07TENEfxu%2B3l5drOyN%2BEztSmodLqyrmQS8fPCdDkh%2Fa9DzvNFc3joeJiB9vJlUQ5o1LRHY6fkT00xo%2B2O4AqmKx2FVTkJHwPO%2F3mLlm5zgUYBlj%2FqZcLr%2BB7TmjuZosHKkgIGPM52oK4sThAhYzX5nFP5lHRP%2BDIxgzH5%2FMTz8ngcXMe3FkI6IlOeGOLLDiqJEElarez8w1kwHHVOzyInIALxpyIqKZ6f4gPZjAwm6YtQsQUdPAIqJdxpg5RHSNMQZhgYjg1ISFpwoYtDN%2B%2FPhxOeOrAgsywJwQkcuxILtARDdhYUzw2o0je5oXEc0Cj5hub5rGGHNlgsdBHCFreIjIviAIvlGT2Y%2FEQIEVBMGJqvrrIAjOb7Y5HD3CMNyLe126znsJLLSNnYuIbkn3I5lOAktVNyTLmnlub29%2FPzO%2FEL%2FAt4Mg%2BOI79aJhPHv78Wffs%2BPEM%2BfvHF4oRNWjKe6DzPxr0OMU4Hne2HQ7gwmsuJ%2Bvp%2B8l%2FQEWMz%2BR7jPS48ePPwnXETeZReSpLDq3Y2GzCMPwnCyaQqFwFDO%2FAl6gK5VKQRadMeZ50MQgvd3RYAF0ixgWvSAIprmyamyM%2BbS19pWazH4mBgos3HGstS%2F2pzmsGtZaHH363I%2Fea2AFQTAekxcLRN4YksCy1gJYTd3NHD%2Ff9%2F%2FarZqqegXyOxfuOPGMe3Z854y7tr1%2B1tJd0bQfbD9w5r0v3TxtyfaqMgaLj5t8RHR%2Fus1BBBbux26FfzJ5zOwPsEQkE1gYO3YFZn4D7eCOCCWDk5WLmwRWgZmxw7vd%2Fc9c%2FWTs%2B%2F44VYV%2BAXRvqSqUOMNw102M9fvJOtVnZl5ERIv6FPQjY6DAUlUciW7qR1NVUiK6jplXpuu918DCqofd0%2FO809N9cekMYLmihjEmJjOvcC%2FV87zfNtduOuFTd%2B%2FcOWXxlmjK4ueiqXc%2B%2F05YsiU6a%2BmufVMXbzoFd0ER2Yp6AP6ECRM%2BkGxssIDFzN9R1d1uwuEY59o9XMACPyL6pltsmHm%2Ba8PFzQKLiJbHMsJi8EeufjoWkZluTBifMeZCl2bm%2FW1tbb%2BZroPz9v5Yy9WnrNmMgQALL99a%2BxQR%2FWOz7Tg6qJWxa7m0i48AsLDqbe6jCXIdKhQKSWCp6laouKFFTQciMqBNVIV2arg71jHzRpR13%2FrsnVNufy7quXVT1HPbs9UwedHmaPLtm6Mq2JZsrWqwoITC5MPlHKtuku9gAYuIZp966qknq%2BpBN%2FF83%2F9TtH2YgVXB8Q1tMPN%2FJ8eG5ySwiOhP0uVI447KzNU7G7SVaRml6mCB2%2BTG5GLI1xiTbd7B%2BTBPGZBinpscCLBGjhz5PlV9HseWXMY5BaVSqTsMw13p4iMBLCJahR003ReXTgIrfiHQ3vUJ8QpcYyqArSXOxySqAqZn4XMbu2%2FZGHXfsqEaehZujHr%2B490w7d4XX5i6PDqOmb%2BEurHSw3f9QTyYwAJ%2FTGY3%2BUTkIDMXjTFfR1%2FQpya0grlHQfCHXdMBK8sM4IAVyw5mIyh7%2FisO9%2BOdufsR%2BsnMjyaPrUlZuWfY4ZKa17jev7nyPrGqvnQoigswHAiwYlvBz7CS9elUgwyoeJl5e5rsSABLRH7BzBen%2B%2BLSaWDhZWcFTDpm7r0coz6OGFCrx5N0NfJ6btq4suvG9VHXjU9H3QueeSfctD7qRrh5QzRl0dbNoCOiy9FOvGPVGNgdsFR1X70JBaOsA4iqPujGlIyT6nbsWK5MROYl6u4KguDfDxewYCB3qnmAxbXpYgcs135eDPkw89N9tHmOUSr2fT95BHwZczhF8m7SGPM9Irrv3Zz%2BPw0EWGhFROaLyLL%2BtigidxHRPel6xpi7mrVjEREWlEw7VjPqdrRdqVSOKZfLrxljKN0Xl04CC%2FYmKGyI6Nx0YOYvBkFQY7WP70rr44nxGl7kxOvWnNm9YP2Bzu%2Bti7puQPh5b5i8cHPUteCZc9G2iDyJepiA0Ka5%2FiBm5pfdZMPJIVmWfIaXhKNT1cx7eB6wYq0bdga3MFQ1lfFk7gWgay9lx6q7Y6nqXPAFLxiMHQ8Xp4D1srV2GwIz9x5RjTE7jTHn1Bu%2F4%2BdiY8wfoE20HSuFXFHf2Pf9LhDjJfYtbS5noMCCt0UYhm%2FUcy9J94CZP2St3W%2BM6UmXwXCNCYWXmi5LpuP73etEpMl8PONo0SywiOhvcZ%2Bo1%2F8ksKy169PtNUoz87%2B4SQQNLugnzX3qC53z1h7ovG5N1DlvbdQ5b03UdcPTUdf8p6u7f6lUKjrjJnb29K7EzKvwzgE6Y0zupd0Yc68DBgzjWX2tA6zCqFGjTlDVXnuRG8ehHAWhFk9o6Q5k3Y0csHBchJ20Uql8AAoc3%2Fc%2F54ChqrCdZhqzs8aJPGgEXf2snbJPPVyMYVzsU9BkxiEA63gReYaZFzbZFI4416rqpkKh0Gcbhp8ghOn7%2Fsn1%2BDHzWGvtW7ARpemaBVZbW9tHwzDcn2eEdXxTwBqIuv3kxH3gV84uNemaJ2d3zV0bdV77RNR9%2Fbro9Lmrq%2Fcz2FeYudf2knV5N8Zc4iaIqm72ff%2Bjrr8u9jyvQ0TeBBgg046Ojkxf0XrAAi8oa1S1arRuFlhZdiwsqABJcrfNm9xJYKXtWLjrubFbawGuPourk0E67jewoNmIBw93oVzfMTQEjRzUnclGBwqsmB9j12Lmf0ryzHqGmhM7RD1hiMj%2Fwlcs7%2FwLw6WIbMRxMquNZoAFAEPDx8xQKNSV16ECC300xlzkJgOMotAW9nx7zfu7vrvm5UlzVkVdc1cfKF%2F2WNXnjYh%2B7GhV9ZH0bgV%2B2LFVdZub6CICQ%2Fc3YeTEDkZEV0FbjHIEXP6zZIW8RsCKac5N9An86h4FiWhfSuGwEvJ2%2FYl57UwfcV0f6wELNMxcPUrG49%2BXtes5Xsm438BC5fg8Dd%2Bzx4IgOBsuMjjixF7HWAXhwQxXkT1BEHw%2B2SBcbsrl8kG4O8GdJS%2Fk7SRBEPyxqv4f7luxBgleFZiwR1lrPwhXJhG5FzSxB3ey%2BZrn0aNHn4SXoKoPwFM9HsOx4APXLVVdJyLrRowYMbymYpyIgXU9xu%2FGAUdL3AFE5FNEdDMchYno7qwdL83zcACrUCgcE7db1fIRUdWY2XnVqmVds1dF3desrvqoxbuD07yt9zzvd9L9cWl4rcOtJznh8exCPOkArA3jxo37kKuXjpsBFurAG9%2B11QhYDkDp2PUNc9Tt3On%2BIN0IWLGB9weOP3wui8ViQ%2B%2F5AQELHcKRwFp7NazK8QrxDBH93Fq7GauaiCzI8r6Gnx%2F8%2FVR1i7V2a17AbpIlCOThswRr7SLYp%2BD6Y4x5nJkfF5FnMQGstXfUE2aSL7yfVXUheInIeiJaLSKbYt5z0u42ybrQfllrf5kaAzzdYWnfAYDjbpisU%2B%2BZiEbGstljrf1ZPdoGZUfBe1xVYXupWvo7Z%2F3k6p7ZT0STZq2sKhaYuXrMwcQaO3ZsrjeIayfW%2Bt2mqrsSQAKY3oaixVp7HYzSjj4rJqK%2FgueOqr4C37osGuThBKGqD4vIXmbuo6bG%2By%2BXy%2BCzJyPswtxi5h8x82cqlUquwgVticitWITDMIQnSOYdEh48ULO7tph5TZabXHI8UF7EY91DREuTZU09YyXGNy34xsRaW4HrzmmnnfbBvMr4hggrOoRTL2R9h5PmiZUDOwtWZQRjjMVOmKZrJq2qI7ATM%2FM0fHIRhmGtk2QGE9grssYAgOAynlGlUdYx%2BHQEu1%2Fejt2IQbIcx24i%2BjJW3cqlD83qunJVNOnyR6oe%2FdZafDdX4yCdrJv3jCMVXIOgJTXGwIUqzLp3ZdWHSSAe2ydxD8qicXlY0DzPOyWLDsDD7u5OCS7GnDHGfKwRwF0biHHPRD3IHSeuZFnyGX0HHdoCaBoBFn109M3KJ9le63mISMDOXDFr0hWPRZVLH6rrCDxEhtPqZksCR1YCOMZMLxSOtjNXXHX6ZSsjO%2FOB6lEw%2FVnDke1lq%2FWWBIaABHDcxlElVlCsM177ReElj8wJZz4UlS95eIkUx5xjrV0NnQTuCrFipa49bwgMu9XFlgQGTwJBEPx9GIZQ6uA%2FLuBneFf7KR%2F5sF78wK168YNR%2BPUHfzSiUBiuqrDxwXSxP3Zb6vUuH7zetTi3JDA0JYC%2FLlgMrZ0xBuaG0YXC9KN1xn2fl68u36IX3hfJhfe9JBf88ILKZ1e8Dyp2Zl4LeiLaBkXM0Bx2q9ctCQySBIjoG0mXIGPMVWiqPGPpNZWL7o%2FCGcsi%2B5V3wsSvPRjpV5cvQTk%2B1Yi92qE6fxPGYPg1DlI3W2xbEhhSEhgGUwMz35gwrO4vFosljEK%2B9MNyZcayWeUvL10cfmX5nPD8ZZO9%2BdGx8Y61xRk%2F4TEPA34j%2F8khJZlWZ1sSOFQJwCUJrlMOKLHfID63ubxEpbMC1RCfURDR1%2BKvjV91tPE%2FX2V%2FiHeoHWvVb0lgKEsg9mqp%2BuzheAePdLeDpWMACuUugJ6I1rR2q6E8A1p9HzQJxN4js%2FGJD9Tp8EjBp%2BIOWAAUQIQ7GHwtJ0yYMBK%2BgMz8l42chAet0y3GLQkMVQmICHwg3Q6W%2B0emQ3V8rX63JNCSQEsCNRL4f826WDz1IoxRAAAAAElFTkSuQmCC%3B%22%20vertex%3D%221%22%20parent%3D%221%22%3E%3CmxGeometry%20x%3D%22175.5%22%20y%3D%22211%22%20width%3D%22120%22%20height%3D%2216.82%22%20as%3D%22geometry%22%2F%3E%3C%2FmxCell%3E%3C%2Froot%3E%3C%2FmxGraphModel%3E&lt;/span&gt;" style="edgeLabel;html=1;align=center;verticalAlign=middle;resizable=0;points=[];fontSize=12.5;fontColor=#808080;labelBackgroundColor=none;" parent="u6aW30XyLuBGbmjHWJuR-46" vertex="1" connectable="0">
                    <mxGeometry x="46.000000000000114" y="1" as="geometry">
                        <mxPoint x="6" y="6" as="offset"/>
                    </mxGeometry>
                </mxCell>
                <mxCell id="u6aW30XyLuBGbmjHWJuR-57" value="" style="shape=image;verticalLabelPosition=bottom;labelBackgroundColor=#ffffff;verticalAlign=top;aspect=fixed;imageAspect=0;image=data:image/png,iVBORw0KGgoAAAANSUhEUgAAANYAAAAeCAYAAABQWOD3AAAQuUlEQVR4Ae1cC7RVxXk++KiRtDaJbZJiTEmkQC964dx99p7/Mftw5D4Ag7Y20nfTpImmqzElUZtlUmzq0lRqFKJBDC5RqaJI1NgFwZVYpVpDtEHlYZSHKK+gEsFC8BFBd9d33HPdZ9+9zzn3wpV11zpnrVmzZ+aff2b+Pd88/v/fp1Bo/VoSaEngvZGAMeYjzHw2M88QkQuCIPgLZh6V17ox5oRSqXRGXnl/8plZmPl8Zr5CRL5ljDnP9/0JzfAQkQkdHR3tzdCWSqUKM5+Upg2CgJl5SjKUSqWpvu+XPc/7eJq+UXrUqFHH+b4vfhM/VS1NnTr1uEY8gyCYLCI3MPMeEYmY+TUiuiMIgumFQuHoRvWJqAPdMcZ49WjPO++8Y123S6XSmCxazBXf9yeqqs0qd3mq+nFjzOmg9X3/ky7fxZ7nDY/Ly5B1Ikxk5kBEft/RNoqNMW14vwkevfyYeSLGr6q/lcenWCz+LhFV66NPY8aMyaUFjyAISq4tEZnUh2+xWGwTkYfCMIzCMFzLzEtF5D+ttT8VkbdFZIPv+53pihj4xIkTo3R+f9LxRN6uqq+JyMNEdCczf99a+6i1NlLVHR0dHZPr8TTGLFfV2+rRuDIi2m2M+TuXdrG19nFVfdVai77sSITdkIuI7PZ9f0ahUBjm6tSLsSB1dnZCnk2FIAhG5/HzPM8y8y8gDwAqHeL8V0ul0qfzeCBfVd8CrbX24PTp03OB2N7e/jHXb1V9NIsnEX2hXC5Xx0ZE87JokOf7/qWYI+DHzN9N06nquEqlUldGzPwqEV3d3t7+4XT9ZFpElro+uf4nY5TFsvpxEASfSNbFs+d5x4rILtSJaX+SpnFpLBKON2iZ+VJXVo2NMX+OAiK6vq2t7TdqCuMEEV2gqm8GQXB1shwrbblcPpDM68fzMCL6V2vt28aYy/LqEdFlGAB2sTwaZr5bVW/OK0/mG2O2BUHwmWQenjGBVLVWODER5GKM+QeATkRexGqdrp9Oi8gpmDBpEGSlwzB8HfRpHkjjRJAEFDNjsfklMz+nqi8w81uOJ+iI6NosPshT1V/FtHvrAatYLI5wPFV1RRY/IvqsqvaOz/f9M3Po/hn9Ai0zz07TENEfxu+3l5drOyN+EztSmodLqyrmQS8fPCdDkh/a9DzvNFc3joeJiB9vJlUQ5o1LRHY6fkT00xo+2O4AqmKx2FVTkJHwPO/3mLlm5zgUYBlj/qZcLr+B7TmjuZosHKkgIGPM52oK4sThAhYzX5nFP5lHRP+DIxgzH5/MTz8ngcXMe3FkI6IlOeGOLLDiqJEElarez8w1kwHHVOzyInIALxpyIqKZ6f4gPZjAwm6YtQsQUdPAIqJdxpg5RHSNMQZhgYjg1ISFpwoYtDN+/PhxOeOrAgsywJwQkcuxILtARDdhYUzw2o0je5oXEc0Cj5hub5rGGHNlgsdBHCFreIjIviAIvlGT2Y/EQIEVBMGJqvrrIAjOb7Y5HD3CMNyLe126znsJLLSNnYuIbkn3I5lOAktVNyTLmnlub29/PzO/EL/At4Mg+OI79aJhPHv78Wffs+PEM+fvHF4oRNWjKe6DzPxr0OMU4Hne2HQ7gwmsuJ+vp+8l/QEWMz+R7jPS48ePPwnXETeZReSpLDq3Y2GzCMPwnCyaQqFwFDO/Al6gK5VKQRadMeZ50MQgvd3RYAF0ixgWvSAIprmyamyM+bS19pWazH4mBgos3HGstS/2pzmsGtZaHH363I/ea2AFQTAekxcLRN4YksCy1gJYTd3NHD/f9//arZqqegXyOxfuOPGMe3Z854y7tr1+1tJd0bQfbD9w5r0v3TxtyfaqMgaLj5t8RHR/us1BBBbux26FfzJ5zOwPsEQkE1gYO3YFZn4D7eCOCCWDk5WLmwRWgZmxw7vd/c9c/WTs+/44VYV+AXRvqSqUOMNw102M9fvJOtVnZl5ERIv6FPQjY6DAUlUciW7qR1NVUiK6jplXpuu918DCqofd0/O809N9cekMYLmihjEmJjOvcC/V87zfNtduOuFTd+/cOWXxlmjK4ueiqXc+/05YsiU6a+mufVMXbzoFd0ER2Yp6AP6ECRM+kGxssIDFzN9R1d1uwuEY59o9XMACPyL6pltsmHm+a8PFzQKLiJbHMsJi8EeufjoWkZluTBifMeZCl2bm/W1tbb+ZroPz9v5Yy9WnrNmMgQALL99a+xQR/WOz7Tg6qJWxa7m0i48AsLDqbe6jCXIdKhQKSWCp6laouKFFTQciMqBNVIV2arg71jHzRpR13/rsnVNufy7quXVT1HPbs9UwedHmaPLtm6Mq2JZsrWqwoITC5MPlHKtuku9gAYuIZp966qknq+pBN/F83/9TtH2YgVXB8Q1tMPN/J8eG5ySwiOhP0uVI447KzNU7G7SVaRml6mCB2+TG5GLI1xiTbd7B+TBPGZBinpscCLBGjhz5PlV9HseWXMY5BaVSqTsMw13p4iMBLCJahR003ReXTgIrfiHQ3vUJ8QpcYyqArSXOxySqAqZn4XMbu2/ZGHXfsqEaehZujHr+490w7d4XX5i6PDqOmb+EurHSw3f9QTyYwAJ/TGY3+UTkIDMXjTFfR1/Qpya0grlHQfCHXdMBK8sM4IAVyw5mIyh7/isO9+OdufsR+snMjyaPrUlZuWfY4ZKa17jev7nyPrGqvnQoigswHAiwYlvBz7CS9elUgwyoeJl5e5rsSABLRH7BzBen++LSaWDhZWcFTDpm7r0coz6OGFCrx5N0NfJ6btq4suvG9VHXjU9H3QueeSfctD7qRrh5QzRl0dbNoCOiy9FOvGPVGNgdsFR1X70JBaOsA4iqPujGlIyT6nbsWK5MROYl6u4KguDfDxewYCB3qnmAxbXpYgcs135eDPkw89N9tHmOUSr2fT95BHwZczhF8m7SGPM9Irrv3Zz+Pw0EWGhFROaLyLL+tigidxHRPel6xpi7mrVjEREWlEw7VjPqdrRdqVSOKZfLrxljKN0Xl04CC/YmKGyI6Nx0YOYvBkFQY7WP70rr44nxGl7kxOvWnNm9YP2Bzu+ti7puQPh5b5i8cHPUteCZc9G2iDyJepiA0Ka5/iBm5pfdZMPJIVmWfIaXhKNT1cx7eB6wYq0bdga3MFQ1lfFk7gWgay9lx6q7Y6nqXPAFLxiMHQ8Xp4D1srV2GwIz9x5RjTE7jTHn1Bu/4+diY8wfoE20HSuFXFHf2Pf9LhDjJfYtbS5noMCCt0UYhm/Ucy9J94CZP2St3W+M6UmXwXCNCYWXmi5LpuP73etEpMl8PONo0SywiOhvcZ+o1/8ksKy169PtNUoz87+4SQQNLugnzX3qC53z1h7ovG5N1DlvbdQ5b03UdcPTUdf8p6u7f6lUKjrjJnb29K7EzKvwzgE6Y0zupd0Yc68DBgzjWX2tA6zCqFGjTlDVXnuRG8ehHAWhFk9o6Q5k3Y0csHBchJ20Uql8AAoc3/c/54ChqrCdZhqzs8aJPGgEXf2snbJPPVyMYVzsU9BkxiEA63gReYaZFzbZFI4416rqpkKh0Gcbhp8ghOn7/sn1+DHzWGvtW7ARpemaBVZbW9tHwzDcn2eEdXxTwBqIuv3kxH3gV84uNemaJ2d3zV0bdV77RNR9/bro9Lmrq/cz2FeYudf2knV5N8Zc4iaIqm72ff+jrr8u9jyvQ0TeBBgg046Ojkxf0XrAAi8oa1S1arRuFlhZdiwsqABJcrfNm9xJYKXtWLjrubFbawGuPourk0E67jewoNmIBw93oVzfMTQEjRzUnclGBwqsmB9j12Lmf0ryzHqGmhM7RD1hiMj/wlcs7/wLw6WIbMRxMquNZoAFAEPDx8xQKNSV16ECC300xlzkJgOMotAW9nx7zfu7vrvm5UlzVkVdc1cfKF/2WNXnjYh+7GhV9ZH0bgV+2LFVdZub6CICQ/c3YeTEDkZEV0FbjHIEXP6zZIW8RsCKac5N9An86h4FiWhfSuGwEvJ2/Yl57UwfcV0f6wELNMxcPUrG49+Xtes5Xsm438BC5fg8Dd+zx4IgOBsuMjjixF7HWAXhwQxXkT1BEHw+2SBcbsrl8kG4O8GdJS/k7SRBEPyxqv4f7luxBgleFZiwR1lrPwhXJhG5FzSxB3ey+Zrn0aNHn4SXoKoPwFM9HsOx4APXLVVdJyLrRowYMbymYpyIgXU9xu/GAUdL3AFE5FNEdDMchYno7qwdL83zcACrUCgcE7db1fIRUdWY2XnVqmVds1dF3desrvqoxbuD07yt9zzvd9L9cWl4rcOtJznh8exCPOkArA3jxo37kKuXjpsBFurAG9+11QhYDkDp2PUNc9Tt3On+IN0IWLGB9weOP3wui8ViQ+/5AQELHcKRwFp7NazK8QrxDBH93Fq7GauaiCzI8r6Gnx/8/VR1i7V2a17AbpIlCOThswRr7SLYp+D6Y4x5nJkfF5FnMQGstXfUE2aSL7yfVXUheInIeiJaLSKbYt5z0u42ybrQfllrf5kaAzzdYWnfAYDjbpisU++ZiEbGstljrf1ZPdoGZUfBe1xVYXupWvo7Z/3k6p7ZT0STZq2sKhaYuXrMwcQaO3ZsrjeIayfW+t2mqrsSQAKY3oaixVp7HYzSjj4rJqK/gueOqr4C37osGuThBKGqD4vIXmbuo6bG+y+Xy+CzJyPswtxi5h8x82cqlUquwgVticitWITDMIQnSOYdEh48ULO7tph5TZabXHI8UF7EY91DREuTZU09YyXGNy34xsRaW4HrzmmnnfbBvMr4hggrOoRTL2R9h5PmiZUDOwtWZQRjjMVOmKZrJq2qI7ATM/M0fHIRhmGtk2QGE9grssYAgOAynlGlUdYx+HQEu1/ejt2IQbIcx24i+jJW3cqlD83qunJVNOnyR6oe/dZafDdX4yCdrJv3jCMVXIOgJTXGwIUqzLp3ZdWHSSAe2ydxD8qicXlY0DzPOyWLDsDD7u5OCS7GnDHGfKwRwF0biHHPRD3IHSeuZFnyGX0HHdoCaBoBFn109M3KJ9le63mISMDOXDFr0hWPRZVLH6rrCDxEhtPqZksCR1YCOMZMLxSOtjNXXHX6ZSsjO/OB6lEw/VnDke1lq/WWBIaABHDcxlElVlCsM177ReElj8wJZz4UlS95eIkUx5xjrV0NnQTuCrFipa49bwgMu9XFlgQGTwJBEPx9GIZQ6uA/LuBneFf7KR/5sF78wK168YNR+PUHfzSiUBiuqrDxwXSxP3Zb6vUuH7zetTi3JDA0JYC/LlgMrZ0xBuaG0YXC9KN1xn2fl68u36IX3hfJhfe9JBf88ILKZ1e8Dyp2Zl4LeiLaBkXM0Bx2q9ctCQySBIjoG0mXIGPMVWiqPGPpNZWL7o/CGcsi+5V3wsSvPRjpV5cvQTk+1Yi92qE6fxPGYPg1DlI3W2xbEhhSEhgGUwMz35gwrO4vFosljEK+9MNyZcayWeUvL10cfmX5nPD8ZZO9+dGx8Y61xRk/4TEPA34j/8khJZlWZ1sSOFQJwCUJrlMOKLHfID63ubxEpbMC1RCfURDR1+KvjV91tPE/X2V/iHeoHWvVb0lgKEsg9mqp+uzheAePdLeDpWMACuUugJ6I1rR2q6E8A1p9HzQJxN4js/GJD9Tp8EjBp+IOWAAUQIQ7GHwtJ0yYMBK+gMz8l42chAet0y3GLQkMVQmICHwg3Q6W+0emQ3V8rX63JNCSQEsCNRL4f826WDz1IoxRAAAAAElFTkSuQmCC;" parent="u6aW30XyLuBGbmjHWJuR-46" vertex="1">
                    <mxGeometry x="14.25" y="30" width="142.69" height="20" as="geometry"/>
                </mxCell>
                <mxCell id="c_rrTgVc8QJ4BV_1QRsC-1" value="SAP AppGyver" style="group;labelPosition=center;verticalLabelPosition=bottom;align=center;verticalAlign=middle;spacingBottom=0;fontSize=15;fontColor=#053B70;fontStyle=1;spacingTop=-10;" parent="u6aW30XyLuBGbmjHWJuR-46" vertex="1" connectable="0">
                    <mxGeometry x="40" y="127" width="46" height="46" as="geometry"/>
                </mxCell>
                <mxCell id="c_rrTgVc8QJ4BV_1QRsC-2" value="" style="ellipse;whiteSpace=wrap;html=1;fontSize=15;fontColor=#053B70;fillColor=none;strokeWidth=2;strokeColor=#07539E;" parent="c_rrTgVc8QJ4BV_1QRsC-1" vertex="1">
                    <mxGeometry x="1" width="46" height="46" as="geometry"/>
                </mxCell>
                <mxCell id="c_rrTgVc8QJ4BV_1QRsC-3" value="" style="shape=image;verticalLabelPosition=bottom;labelBackgroundColor=#ffffff;verticalAlign=top;aspect=fixed;imageAspect=0;image=data:image/svg+xml,PHN2ZyB4bWxucz0iaHR0cDovL3d3dy53My5vcmcvMjAwMC9zdmciIGlkPSJhcHBneXZlciIgdmlld0JveD0iNC4wMDA3MTY2ODYyNDg3NzkgNC4wMDU5NzYyMDAxMDM3NiA0OC4wMDQwNDczOTM3OTg4MyA0Ny45OTQxNzg3NzE5NzI2NTYiIHdpZHRoPSI0OC4wMDQwNDczOTM3OTg4MyIgaGVpZ2h0PSI0Ny45OTQxNzg3NzE5NzI2NTYiPjxkZWZzPjxzdHlsZT4uY2xzLTF7ZmlsbDojMDUzYjcwO30uY2xzLTJ7ZmlsbDojMGE2ZWQxO308L3N0eWxlPjwvZGVmcz48cGF0aCBjbGFzcz0iY2xzLTEiIGQ9Ik0xMy4zNjUsMjkuMDM1YTIuOCwyLjgsMCwwLDAsMi42NzMtMS4zNDQsMi44MTYsMi44MTYsMCwwLDAsNC43NTMtMS40MzksMi43MiwyLjcyLDAsMCwwLDIuNzM5LTEuMDg0bDIuMTg1LDIuNzg3YzMuMDU3LDMuOSw3LjguMTg1LDQuNzQtMy43MTZsLTYuODM2LTguNzIyYTYuNTQ5LDYuNTQ5LDAsMCwwLDQuOTQ0LTEuNDU3LDMuOTI5LDMuOTI5LDAsMCwwLDEuNDctMy45MjgsMy40MjUsMy40MjUsMCwwLDAtMy4yNTEtMi4yOEMyMS44MjksNy4zNjksMTQuNTg3LDQuMTI3LDE0LjUxMyw0LjFhMS4xMzEsMS4xMzEsMCwwLDAtMS4xNTcuMTUzTDQuNDQ0LDExLjIzM2ExLjE0NywxLjE0NywwLDAsMC0uNDQyLjk2LDM2LjYyNCwzNi42MjQsMCwwLDAsMS41MjksOC4yNzJDNy42MjYsMjYuNjA1LDExLjA2LDI4LjkyLDEzLjM2NSwyOS4wMzVaTTcuNjI5LDE5LjY4NGEzMy43NTgsMzMuNzU4LDAsMCwxLTEuMzc0LTcuMTQzTDE0LjE0MSw2LjM2YzEuOTE3LjgyMiw3Ljg0LDMuMjMsMTIuMzI2LDMuNjY4Ljc5LjA3OCwxLjMxNy4zNjUsMS40MzcuNzg5YTEuNzUxLDEuNzUxLDAsMCwxLS43NDcsMS42MjFjLS41MjIuNDU1LTIuNDYsMS43NDMtNS45NzguMTYxYTEuMTMzLDEuMTMzLDAsMCwwLTEuMzQyLjMzNEExLjA4MiwxLjA4MiwwLDAsMCwxOS44LDE0LjI5bDguODg2LDExLjMzN2MxLjM3LDEuNzQ3LjE3MSwyLjY4Ny0xLjIuOTRMMjMuMDQyLDIwLjlsLS42MDUtLjc3M0wyMC44MiwxOC4wNjRhMS4xMjYsMS4xMjYsMCwwLDAtMS43NzEsMS4zODhsMS42MTcsMi4wNjIuNjA1Ljc3M2MxLjM3NSwxLjc1My4xNTgsMi42OC0xLjIuOTQxbC0yLjIyMi0yLjgzNWExLjEyNiwxLjEyNiwwLDAsMC0xLjc3MSwxLjM4OEwxOC4zLDI0LjYxNmMuNTQ1LjcuNDEzLDEuNC4xMDYsMS42MzYtLjI3Ni4yMTctLjgxMy0uMDY5LTEuMy0uN2wtMi4yMjItMi44MzVhMS4xMjYsMS4xMjYsMCwwLDAtMS43NzEsMS4zODhjMS4wNTEsMS4zNCwxLjE4LDIuMjc5LDEuMDEsMi41ODUtLjA3NC4xNTctLjQzNC4xNjMtLjU0LjE1N0MxMi4xNDQsMjYuNzc5LDkuMzc5LDI0LjgxLDcuNjI5LDE5LjY4NFoiLz48cGF0aCBjbGFzcz0iY2xzLTEiIGQ9Ik01MS4wOSw0Ny43NDlsLTQuNSwzLjk3YTEuMTI1LDEuMTI1LDAsMCwxLTEuNTg4LS4xbC0zLjIyNS0zLjY1NUwzOC4xMjIsNTEuMTlhMS4xMjIsMS4xMjIsMCwwLDEtMS44My0uNTU1TDMxLjEzLDMxLjE4M2ExLjE2NywxLjE2NywwLDAsMSwxLjUwNy0xLjMzTDUxLjMsMzcuNGExLjExOCwxLjExOCwwLDAsMSwuNjg5Ljg1MSwxLjEzLDEuMTMsMCwwLDEtLjM2NSwxLjAzNGwtMy42NTYsMy4yMjUsMy4yMjYsMy42NTZBMS4xMjUsMS4xMjUsMCwwLDEsNTEuMDksNDcuNzQ5Wm0tNS4xNDQsMS41MzgsMi44MTItMi40ODEtMy4yMjYtMy42NTVhMS4xMjUsMS4xMjUsMCwwLDEsLjEtMS41ODhMNDguNzY2LDM4LjgsMzMuODgsMzIuNzgxLDM4LDQ4LjNsMy4xMzQtMi43NjZhMS4xMjUsMS4xMjUsMCwwLDEsMS41ODguMVoiLz48cGF0aCBjbGFzcz0iY2xzLTIiIGQ9Ik0zNi45MzgsMjMuMDg1bDcuNzQtOC44MTJhMS4xNCwxLjE0LDAsMCwxLDEuNzEzLDEuNTA1LDEuMjc2LDEuMjc2LDAsMCwxLS4xLjFsLTguODEyLDcuNzRhLjM4MS4zODEsMCwwLDEtLjUzNy0uNTM3WiIvPjxwYXRoIGNsYXNzPSJjbHMtMiIgZD0iTTE1LjcxMyw0My4yMzhsOC44MTItNy43NGEuMzgxLjM4MSwwLDAsMSwuNTM3LjUzN2wtNy43NCw4LjgxMmExLjE0LDEuMTQsMCwxLDEtMS43MTMtMS41MDVBMS4yNzYsMS4yNzYsMCwwLDEsMTUuNzEzLDQzLjIzOFoiLz48cGF0aCBjbGFzcz0iY2xzLTIiIGQ9Ik0zMi45MDYsMjAuOTgxbDIuMy0xMS41YTEuMTQsMS4xNCwwLDAsMSwyLjIzNS40NDcsMS4xLDEuMSwwLDAsMS0uMDM4LjE0MkwzMy42MzksMjEuMTc3YS4zOC4zOCwwLDAsMS0uNzMzLS4yWiIvPjxwYXRoIGNsYXNzPSJjbHMtMiIgZD0iTTI0LjYsNDkuMDU0bDMuNzYzLTExLjExM2EuMzguMzgsMCwwLDEsLjczMi4yTDI2LjgsNDkuNjQzYTEuMTQsMS4xNCwwLDEsMS0yLjItLjU4OVoiLz48cGF0aCBjbGFzcz0iY2xzLTIiIGQ9Ik0yMi42MTksMzIuMiwxMS41MDYsMzUuOTYxYTEuMTQsMS4xNCwwLDEsMS0uNzMxLTIuMTU5LDEuMjUsMS4yNSwwLDAsMSwuMTQyLS4wMzlsMTEuNTA1LTIuM2EuMzguMzgsMCwwLDEsLjIuNzMyWiIvPjxwYXRoIGNsYXNzPSJjbHMtMiIgZD0iTTUxLjA4MywyNS4zNTZsLTExLjUsMi4zYS4zOC4zOCwwLDAsMS0uMi0uNzMzbDExLjExMi0zLjc2MmExLjE0LDEuMTQsMCwwLDEsLjczMSwyLjE1OUExLjI0NCwxLjI0NCwwLDAsMSw1MS4wODMsMjUuMzU2WiIvPjwvc3ZnPg==;" parent="c_rrTgVc8QJ4BV_1QRsC-1" vertex="1">
                    <mxGeometry x="10.88000000000011" y="10.870000000000005" width="24.25" height="24.25" as="geometry"/>
                </mxCell>
                <mxCell id="u6aW30XyLuBGbmjHWJuR-72" value="&lt;p style=&quot;margin-top: 0pt ; margin-bottom: 0pt ; margin-left: 0in ; direction: ltr ; unicode-bidi: embed ; word-break: normal ; font-size: 11px&quot;&gt;&lt;span style=&quot;font-size: 14px ; font-weight: 700&quot;&gt;API Monetization with Stripe&lt;/span&gt;&lt;br&gt;&lt;/p&gt;" style="rounded=0;whiteSpace=wrap;html=1;strokeColor=#595959;strokeWidth=2;fillColor=none;align=center;verticalAlign=top;fontSize=11;fontFamily=Arial;container=1;recursiveResize=0;collapsible=0;fontColor=#595959;" parent="u6aW30XyLuBGbmjHWJuR-46" vertex="1">
                    <mxGeometry x="656.25" y="36.81999999999999" width="240" height="35" as="geometry"/>
                </mxCell>
                <mxCell id="CEQAaOpmtx5C-81C31OT-4" value="" style="endArrow=block;html=1;strokeWidth=2;fontSize=16;fontColor=#595959;strokeColor=#595959;endFill=1;startArrow=none;exitX=1;exitY=0.5;exitDx=0;exitDy=0;" parent="u6aW30XyLuBGbmjHWJuR-46" edge="1">
                    <mxGeometry width="50" height="50" relative="1" as="geometry">
                        <mxPoint x="86.00000000000011" y="149.66999999999996" as="sourcePoint"/>
                        <mxPoint x="194.25" y="150" as="targetPoint"/>
                    </mxGeometry>
                </mxCell>
                <mxCell id="aBb4EluXftlLtabgKLQh-1" style="rounded=0;orthogonalLoop=1;jettySize=auto;html=1;fontColor=#FFFFFF;strokeColor=#595959;endArrow=block;endFill=1;strokeWidth=2;labelBackgroundColor=#ffffff;endSize=6;startSize=6;jumpSize=6;edgeStyle=orthogonalEdgeStyle;entryX=0;entryY=0.5;entryDx=0;entryDy=0;" parent="u6aW30XyLuBGbmjHWJuR-46" target="Xo-5ERLmSCqsP6Ov1QiX-3" edge="1">
                    <mxGeometry x="-1379.840909090909" y="-310.41999999999996" as="geometry">
                        <mxPoint x="54.25" y="381.43000000000006" as="targetPoint"/>
                        <mxPoint x="65" y="211" as="sourcePoint"/>
                        <Array as="points">
                            <mxPoint x="65" y="305"/>
                        </Array>
                    </mxGeometry>
                </mxCell>
                <mxCell id="VGe0GvYc2ACer3DLN0nQ-5" value="" style="ellipse;whiteSpace=wrap;html=1;fontSize=15;fontColor=#053B70;strokeColor=none;" parent="u6aW30XyLuBGbmjHWJuR-46" vertex="1">
                    <mxGeometry x="297.25" y="16.01" width="47" height="48" as="geometry"/>
                </mxCell>
                <mxCell id="QRWAaMgFSjCzo6saS06B-16" value="" style="shape=image;verticalLabelPosition=bottom;verticalAlign=top;imageAspect=0;aspect=fixed;image=data:image/png,iVBORw0KGgoAAAANSUhEUgAAAdMAAAHTCAYAAAB8/vKtAAAACXBIWXMAAFxGAABcRgEUlENBAAAgAElEQVR4nO3dT04jybbH8eTqDix5QN0VFL0C3HOkojbgoldQ1AKQ6QHjco0ZlJEXULCCBjbQIDFvs4KGFbz2AIkZT0EfV2fRYNIZJyJPRHw/Eur73u1rjP/kLyPixIm1h4eHCgAAtPcfXjsAAPwQpgAAeCJMAQDwRJgCAOCJMAUAwBNhCgCAJ8IUAABPhCkAAJ4IUwAAPBGmAAB4IkwBAPBEmAIA4IkwBQDAE2EKAIAnwhQAAE+EKQAAnghTAAA8EaYAAHgiTAEA8ESYAgDgiTAFAMATYQoAgCfCFAAAT4QpAACeCFMAADwRpgAAeCJMAQDwRJgCAOCJMAUAwBNhCgCAJ8IUAABPhCkAAJ7+ywsIxNcbTref+aVvqqoarPBk/qqqavbM///m/nzvhrcViGft4eGBlxvw1BtOBxKGG/JTSTC+qf3n9Y5e52sJ3krC9696EN+f71109LyAbBCmQEMymlyE5aA2kuwqJLVdyuNd1MKWUS7QAGEKPCGhOaiFZk6B2ZYL2hv5cWE7uz/f+yvMrwLSQ5iiaLXgXPxslv6arGAuo9cL+eeMUSxKRZiiGL3h1I00F+G5TXAGcVsL2Iv7873nCqSA7BCmyFYtPBc/b3m3O3FZC1eKnZAlwhTZ6A2nriBoh/A074yRK3JDmCJpsiVlR36Ytk3PrQTr6f353mnpLwbSRZgiOb3hdKc2AmX0mRc3aj2VcKVaGMkgTJGEWoDusE2lGK7ZxLEEK1XCMI0whVkEKGpcsE4YscIqwhSmyBroPgGKJc4kVI95kWAFYYrOyRaWHQlR1kDR1FzWVydUBaNrhCk6I9O4u1VVfeBdgKdbmQY+ZhoYXSBMEZWMQnflh1EoQjiRUKVBBKIhTBGF9MB1AfqRVxyRXMsUMGurCI4wRVC94XRX1kJpqPCP+vmiCz6jqPoZqgvv/J5iVuYyBTxhChihEKZQJ2399gucyq2fB1rVjizr9ADu2sHllTS6qGrnsW4U9h65KeAx+1ahjTCFmlqI7me8raV+rqerIP0rh7W5WuBu1w49z/kc1zMZqbKuChWEKbxJUdE4s/XQxVFii+PEbkoczcgNUv28143MppAvZaRKqMILYYrWMgrRee2A6ws55Jq1tSVkJLud0aHqhCq8EKZYWQYhujipZHEMGOtnnmQEWz87NtVwJVTRCmGKxhJeE110yiE8I8kgXAlVrIQwxasSDdHLRYDSaq57MpuxXTs6L5XPEdW/aIQwxVKyT3ScwPaJ+uiTk0WMkyYeixOBUtiacyShyucKzyJM8Sy52E2MT8/NawdJnxp4PmhBipl2EwjWuQTqxMBzgTGEKX4g03ETw83nCdCMJRKsroBtl/VU1BGmeFRbF/1s9BU5q4UoU20FSOBs20sJVdZTQZji+1FoE4MjgcWxWqdcsMoma/c7RmdMvtyf740NPA90iDAtmOEpXY7QwrMMH+HH1G/hCNNC9YbTfanStTJ9xuHOWImMVneNtTc8k1DlM1wYwrQwsg41MXQBupSG4xQToRWDHbnmEqh8pgtCmBakN5yODRUYnUiI0lABKgw2F6FAqSCEaQFkNHpsYM/oXJ7HhAsMQjLUbIS9qYUgTDNnZDQ6l6nlCWtJiMlQqLKWmjnCNFOyjnTc8dooIQoTjIQqa6kZI0wzJBeOSYfrRoQoTDISqvT5zRBhmhEpwDjucN8oIYokGAjVaxmlUoCXCcI0E1JkdNrhxYGjqpAcA/utf6U4KQ+EaQbkgvC1o7+E8n8kzcCWGoqTMkCYJqzjaV3apyErHTd/cN+nHaZ900WYJqrDaV32zSFrHZ/l++n+fO+YT1h6CNMEdVit69ZF95mOQgk6XE/le5YgwjQxveHUhego8rO+li83U7ooiiylTDqY+nXfuW0CNR2EaSLkS30auQnDXLa5cFYjiiZTv8eRl1XmEqisoyaAME1AR711qdIFnuioPSfrqAkgTI2TO+LTiOs2FBgBS3R0c3t0f763z/tiF2FqmBQafYv4DBmNAg11MEplP6phhKlRveH0OGLRA6NRoIUORqkUJhlFmBrTQfUgo1HAU+Qqexo8GESYGiJBehHxLvcLlbqAjsj1DVT6GvOf0l8AKyIHqbuz/ZkgBfTIPuwNWdsMzQX2hdRVwABGpgZEbg1IEQMQWOTDJ9g6YwBh2jEJ0otIU0Mc9wREEvkmmUDtGNO8HYoYpItpXYIUiETWMweRpn2/yVYddISRaUciBumlVP4xrQt0JOKe1JP78z3WUTtAmHYgYpDSNQUwImK1L4HaAaZ5I5Pquz8Cf6HmsoZCkAJGSLXvtjReCOmjNH1BRIxMI4rUHpD9Z4Bhsg3Ohd2HwM+SEWpEhGkkMrX7R+DfRqsxIBGRuiYRqJEwzRtBbY00pBOCFEiHLMN8CvyEmfKNhJFpYJGKjbj7BBIVqTCJYsTACNOAIgUpm7WBxHGtSB/TvIHw5QDQVK3BQ8hK32/08g2HkWkAUq03C9hGjIpdIEORDrzgJjwAwlRZhC8DQQpkTK4hbg31XcC/8meuIboIU0UEKQAtUoX7MdALyrVEGWumuiYBg9StpQz48ANlkAr9k0B/7OI81Dd8nHQQpkoC30UumjHcRP/DAHSGQE0HYapAKuRCBynNGIACBQ7UTVmfhSfC1JNsuA7Vb5cgBRA6UN/RJckfYeqhdpJ+CAQpgO8CB6prO0iHJA9U87YUuHKXIAXwrMD1Ge/lqDisiJFpe6eBgtSVrO8QpACeE3iEeiozblgRYdqCHJ0UYkP1nKpdAK+RQD0L8EK5Ct9jKnxXR5iuSCp3Q5xByCZqAKvYDdTLd1MOL8cKCNMVyPTHJNDDE6QAGpOloO1AgfqhN5yOeTeaowCpocDN62k8DaCVwNcmCpIaYmTa3DFBCsAaGaHuyFKRtlPWT5shTBuQ/VcfAjz0CUEKwJcsEW0HeCHX6ZDUDGH6Clkn/RrgoU+kIg8AvEmgfgrwSr5j/fR1hOkStXMFtbmCAbqNAFAlM11fAryqn6V1Kl5AmC4XYp10TncjAKHcn++NAzV1YP10if+afWYdk/2k2uukBKlxa1sH7mIxkJ83tXWogawfNXUp/56bevtLWk/ePFwd0pADMezLZ1azS9u6DDB2eAf/ja0xz+gNpxtyEVzl4tkElbvGrG0dDCQwt+XiE6Jiu24uwfr483B1yN5iBCGjyJsA17Ff78/3Qu23TxZh+ozecHoRoF3g0f35HuukBqxtHezI3fVOgAvNqm5lXf6YYIU2KaD8Q/lh3Q3hgLanPyJMn5Cqtc/KD3t5f77H4n2H1rYONmTqa9dAgL7kVqbRjpkOhhZZstI+c/n6/nyPhvg1hGlNoLu4W7mLY520A2tbB+4mZhzoYIKQXAHJhNEqNAQ6tu2LFDsVryJMf9QbTmcBjlX7mZ678SUcok+5QqZdRqrwEfD8Za5vgjAVgaZ3WaiPTKZzjzMI0afcSHX/4eqQGQ60IjNvF8rLHEz3CvaZ/vMh0w7SM4I0rrWtg7FUYecWpJVM0d2sbR1QxIZWZASp/fnZpDvS3xiZhqneZZ00IhmNngaYwrKKqV+0Fmj99KfSq3uLH5lKE3vtkcwOQRqHbHMJsdZtmfu8zta2DujtjDb2A5yBWvz++aLDVJozaE9RfGFBPg6Z1v3N8FaXkNzf/G1t66D4ixhWIzf62jdi72RgUqyip3l7w+mpcstA9pNGIiGiPVWVKjftu0NxElYh4ad5IpZr5rBR6qxcsSPT3nC6oxyk8wB3e3gGQfovbtr3QvoKA41IgeSl4qvlZkuKLboscmQqe65myn1Y2QYTgYEgXXbxedPx2u3jQQo0ekBTgfqQv78/37so7U0oNUy195QyvRtBxCBdNKOfyc/NKgEl1cUbteb52xHXdQlUrCTAdG+Re0+LC1O5E/tT8SFp+hyBFBtp7wWuu5aKxCAnucjpNDuyFBDjZJoN1lDRVIDtgcXN1JUYptpFR0zvBiZbQLQbdVcSOsfSAzfazZAE637gU2uuZYRKoOJVAaZ7iytGKipMe8Opm277XfEhmd4NTIJHuwXaXMLstMuwkYKhffkJEaqXD1eHfD7RSIDp3qKOnSytmldzBEn1bhzHykHzRaZAj7setbnf/3B1OJb11S/ymdL0bm3rgFkTNBKgunckI94iFBOmcqafZqXlhHXSsGSdVOs9cxeJn1x4WZv6rIWqG4WfKT/8SLpEAU1oDxCKaSpSxDRvgK0wnJQQmEzvap0t+0XCKgkSfpoj8sciOXr5ookAux2K2CpTysh0X7mCkpM7wtO4o3Uh8ktKQVr9PVI9lalfrSm3dXqnoik58PtW8QUrYqkh+zCVUalm+J2UuCE5Jqne9Z3eXey3PE3rr/+bTP1uy1qqhncc34YVaE73bsoyW9ZKGJlqVkrOGZWGJRWuvney2TQukFH1J6WHG0tDCWApGTBort9nf+Zp1mEqlWSa4TfmaLXgfG9+susA5CqPq6r6WaHat+jeqVjZvmKF+dvcR6e5j0zHiqPSW5ozhFXbd9lWtq305G/aVri4fVjbOmDvKV4luxU0r3lZj06zDVMZlWr2cWVPaXi+o9L9nHvSKgZq9lNuUDNRLEbKenSa7daY3nCq2RSdTkcRrG0d/OURpkcPV4dFrGfL1pnfPB/mlzbFWTKqHUi18aDBSTmLiuTFoQEzmvCnRQJQq52nm+HLct0+yzAN0Mz+Jxo0hOXZf/f64eqwqH2/Cv2KG71mUrC0Iz+ajdDPpE3kKftf7esNpzPFBiqf7s/3stuqles0r+Y01glBGoXPqLK4KXgpSjrxeIjNl9ZO3dq120aztnUwk5vSr8pBWslhE+5x/3S/x90ccLi5aaqFnBm+PvmNTGVf6f8pPRzHq0Xg2e0oqe5G2iTw2o4YfmiEL6PQceDTbJaZyxrdMaNVe5SPactudJrjyFTzDor+u3G0HVnelhykYtejIMk1ctiQn2MZhX7sKEgr+b2fZbQ6ZqRqjuZ3LbvvbVZhqtztaM6evGjaNmIvPUgXFb4+r8OpFAZpVr5rcKF6Q9cmO6SRg8/SQl12lb25jUw1ux1NaNAQnkzxtumbfCvrhsV7uDr0OTprs8OR6Gvc8/q6tnVwQecmMzRvYAlTw7TeHEal8bR9z4oflT6R8wjOrdPNpIIZHZJlL63R6bvecJrNlsNswlSmDLROhmFUGk+bKV5GpU/IdO+RqSely41Sv8naLrqleSObzU1gTiNT1koTI1N3bW6AuKA+b6zYS9Wqj7KVhuKkjiiPTj9IX4DkZRGmMlWgtaGYUWk8bad4CNNnuGPbCrkRdN/1CwK1U4xOn8hlZMpaaZrahOk1exCXKuXzS6B2SEanWke07cpOjKQlH6bKDe2PGZVG1SZMGZUuIaNTrSk46wjUbmnduK17bI8zI4eRqWaFH6PSSOQC2Ga9dOXm7AXq4obj8snPdaTfu8lnohuy77Ttlqynkq/OT76dYG84vVGq4nU9eCm9j6TlySeuipf9hg2sbR1ofS+eupUG9fVTYF6czZEis4HMQuwEek7OycPVId/fyHrDqcYJRgvvJaCT9N9Un3j1zxupth1G6XHQTJtTXpL9onVgrHhs1rWMdlc+4UX+/RsZPe5Lk45d+dFsFuGqfC/YMhXX/fneaW84dTdYGtfh3ZS/46lP82rdibrzSjljMa42Ycp71Nyp5zaZuay9/uSOanNdljQKv9x+WDl31o1Yvyhv5ZnQKakTWlO0H1MuREo2TKXw6IPSwzEqja/NRY8wbUimXtuuJbrmDxtu2jRU5bR7fnJIwYZis4l1CtQ64XvjVpfsVH3KI1Ot6i938jsFDPG12RdMmK5m1ZvEMxmJ7i9bB9UkoepGqu+VLsjvaDsYl+yA0LqJIUw7oLXRl1FpZG2n4mJd4HMhLQabVNW6isz3D1eHO13t4X24OryQUapGFfCE7TLRaV1HN3vDaZsloM4lGabyYmsVHjEtFF+bMI211SI3yy5yrnDkF3dAuIRZp+RmaVthn+x65o3/zZEmDlrbZJIcnaY6MtX6opzQpKETbcKU96kFqW59On3q/u9PbpvRw9WhqSUOmfbdVeius8/oNDqt0WmSDRxSDVOtF5tRaTeouIxr8TmfSwXtRgJbSHY9ZyMYnUYmtSe3Cr/1rWx7TEpyYSovssb+tNuUNwgDK5jUKnTHKaw916Z8fYqSCNP4tGY6CNMItF5kCo+6k2SBQapcUVHMCl0t8nx9vu/rVPZGV+xUb8lhynaY7rCWhUakMMqnICn5BuopUSxEWk9tqjepMFWc4j2TNx2Affse070fKESKTms9PqkwTa03L6NSmNQfzTbk87ktBVY+h9VfSj/bi7ujQfFFcm66d23rwE0ffm75EDsUG0Z1qtQXmpFpQBov7pwwhRYXov3RzF2o/6yq6qu0uPQJUuednNH7rT+a/dUfzZI/nkrBxGN02ubcXLQk2w01ztRNaqo3mTBVnOI9ZW9pksxtp+mPZrvS4lDrcPrnuM/85/5oNuuPZsUWbnn2GmbdNL7iqnpTGpkyxVu2UOdgtiJB+k35GLFl3Gj3ouRA9agUXec0mbhkz6lGr2XCNACNqZo5Te27JYeCJ31hqwVpbOslB6r0Gm7bFICOSPFpXGvdVG8S0/RJhKliL16CtANuVLC2dTBe2zq4kVP5W72Xa1sHnX+pJMi6CNKF0o8Za9toZeSKuuRzSKjGUdRUbyojU6Z4E7S2dTBY2zpYFOd8tjZV25KFZh+bBRcl+XQtW5fP4WOoKj4nPENxqpeRqSKVKl6meOOQkai76P2hXJzT6YiiP5ptS6WtBaW2ytM40/YxVNe2DmYWZjsyp3HNdceymV8aMh+mveH0jcJWg4pRaXhu+qw2Eg0ROl2vFVpqTbfeH82Kq1KVdVMt7rryu+xhRRha113zNz0pjEy1Lhg0tQ9obetgXxoNhNwm0jVrX+hSt3xonZu5MJJRKj2j9Wldd81/1lMIU60LGCPTAGQ0eiENC0JvE+nsYtcfzd4YXPMtdbtHiFagj1uPpNocSmRPv+/ZtBUjUx0aL+IljRr0yYXnJuI6YpdrphZHLVbWb2PTnOqtczeDv1GcpE5jdLouuzrMMt2bVxad2RJjkFxw2vZKbSu1LQ0nK46iLBU4WRYqTBdccZI7+5Xj23ScysyVr50I731r1hvdaw3tWS9VInv0Jh2tjWoUosV0fHc0aPzZk+0uhOkr3LFsa1sHoX/NR/c7CFR/7oSu3nB6qzAwMj3Va32aV6vrkdm7mZRIkF50EKRzGeX9kvYrCEXvldbilvko1enwpzE7aPpGs4QwZYpXQS1IY40Ovwfow9XhGzdCeLg65L3EIzc6fbg6dNN+PymdUPISAlWHyuyg5daCZqd5FddLmeL1FDlI3Wjj9OHqkAsYXvVwdejWpHdlDX9XmlloV5W7QP3r4eqw1EYZGrSuw9tWr+mWR6aslxoQKUhdgH6qqup/brRBkGJVLlQfrg7Hsl3oi1Ibuzq3F5X105ZkN8W1wkOZrei1XICk8aLdusVvhccp2XGgIJ1LIdOxjC4Ab3Lu6Vi6Gu0rV5x/c80dlLswlUTjptzsNG/uI1NGpR7kgvRB+WHnMnJwWw/GBClCcKEqI9WflUZEC6ecOtOa1n5Tk81KLIepxmiIMG1JprRGyg97UgtRmmggODeKfLg6HMgNnIa3hR+B50Nz3dQck2GqWLFFmLbgNqwrHzXm9pi9l4pcQhTRySj1vdJa6gfaDq4u93VTqyNTjRdrznppa8eKFZFuNDpwWxk6+DuA7+QzuK0UqMdM97aicR0gTFfAemlH5PQXrc3RnxiNwhIpHtpQGCG5m016+K5Oo3jLZPMGq9W8GgvMVNytSKZ3NS4Q7s5/m6rHatAfrfQSJHsKTH80Gyj0Tr65OxoEn01yN3dyKPjMcy+72y5zzOd8JVrNGwbWOttZDVOKj7oxUZjeJUj/odHc26z+aLYtjRJ2tJYF+qPZrXQtm4QMVgnUHblO+Dz3SQrHg1khfXrnCp+XgbUBk7lpXsXiIy7mK5A7dd9tMDkHqcX1d80tH431R7ON/mjmQuh36dOs2XHorVSR/9kfzSZyjmwQ8jn1vd68k+8OmtO4PpibxbG4ZqrVrIF1utX4Tu9mPSKVUZJ2Vx1f0QO+P5otjsGKsW7lQnUmU8hByOf1V8/HZu10NRqzhuZuYCyGKeulkcmdte/FcbeAqV1rSwdRG//3RzM3pftbgN63y7iR6kXgQHVTtZceD/FO6g3QjMZ1wlxFb64jU8J0Nb531l8KOdHF2t8Y7flImGnuPV6FC+/TkFO+svbrM/PA6LQ5jRkV1wnJ1NakXMOU4qOG5I7aZ1R6KRvis3d3NDiWBhQWnNwdDWIuZWjuPW4jaOchaWvp8zneYd9pM4pVuKZGpxbDVOMLS7OG5nwuIHO5oy+JhWO45jGfh0zvxjrHdpkPUkEchEz3tr1ZWpeqZjTjM62+QJi+RKuSl85HK/G5AExKa1R/dzQ4DXwYdRO7kUellmYeQt+8eY1OFZ9H7jSuG0zzLqGxiK9xx1ME2WfXdibgtpTp3afujga7HQbqJwn0KGStVOOQfi0fQz64nKXbdnT6ganexjTC1FRFb45hyqi0OZ876aILLjoI1LkEaewTS8xtQQg51St8PtvsOW1Go66FkekSGnPghGlzbcP0Vu7giyaB+kuEoiQ32zLoIEgroy0OQ6+VnXpU9jLV24zGMoWFdfzvrIWpxp0G22IakL2lbad42QYg3JTr3dHABc6nqqrOFBs7uIA+codb3x0NtmP0rH2BxRM6go5I5GCGtlPpjEwb0KrotXRQuLXevBpfXDofNePzpe90v6VrZycjgB35zPhUgM9lysn9HLct7JFR43Ht+S37kp8uec7v744GqW/ter/iv/97oOfh47Tl+uxbt27KSUmN3Cqsx29YmY20Fqbe22Luz/fYY9pM2zA96epCISE1Vi5CWZeexO7na380c6PBsU+1rIwiX/yC90ezZRfq5DvprHozsOLJOlG4JiRrWwdtG7IP2OveyI1SmJpgZprXHalj4GmUpO3r3clFQvY6zkJXc0o/2JvARS7LOgmVtm/XsrafdaZ6m8mq4b2lNVONdRC2xTQgXY/azgJEn+KVIP0WsQOP+z2/y+9Vd3c0mC0pWnonI3B0r22Y8v41ozHDZaai11KY8gGMp+1rfR17ircWpF34FnCEyujUvrYjJ65lzWTV8D63MGWdopkkpnhlhNZVc/WFUA3Wl21zIUxtIEzDyqpIy2JvXoTXNhxiV8113Vy9kt+vvhVICpxeavrwVs4NRYc8ZmEsdYyyTON6wsj0GTRsiKftnXO0sktpYxfjAOomRoxOi0UdRiBKPdS7vtn+LrcCJMK0mbZhGnNaxlqYqD8f2ULyUiHSBwqRgHQwzYvGHq4OY24ItDbNSSESoO/a9xG1ThvzldU0Lw0bsmJt3SnU2syyrUaEKXKXTRGSpTA1M/eNbsl6qTVBwl26JZ298F+/jXBCCgAF1toJAlXL9fPLFbfubFsocJIbh2Vr/cf90ey1WoAbKQ67kIYQWs9tu836en80Y4YITc0UvocmagtyClPvuXckzQVJ4y0s/dFs3FWYSmXwvkzjvjbifdvg33m3aLPYH83c92Dic1ybhKjP62OlChv2aUzzmghTE9O8SgvInNIQ2NrWAf2TPcn+UTeS/Bxo6nhTOjddrLqdx4WojCp/Nx6IMQvh+MyjEap5y9R2C5Gpk+1T0x/N3Gjxt0j1Ae+kYf+rYeBaNvZHs1kCIboQM0zbvFehD4uHQYRpmdqGKXfpLUmQhj7x5ikXBBcv7VeVEL2R3sebkZ9bW7exDkqXA/TbYL97c/bO32uJAiSsgiYCLfRHs/0OgnRhXbbffL8RksMDxom2vYvZq7ntzSNh2pzG8pyJm/ycwpQKwuYuZM1uVUWPTGUq1F3MT5seHl470LxLm1JwddMyROfyz663r81facGojTBNg4nlJyvTvKzFxdX2y156leamTIm6tcjjhntAx0b2UH+W575KkLrw+iIzEhY6Uu02vYlR0naalxv7AlkJU9biInq4OrypjTZWsrZ1wGkmf4fjRzlA3AXr/pLK2RRfr+8h6rYbuQCTPsJfOnxOJ3dHg2gH00vlettpcEamBaIAqVxtF/4J0x+5C+7Xqqr+rz+andaPTpP/nFJnL1eF+qkeovX/UvbxvnRsXEguSGO3Vmz7+27lZhWFoQCpXBctp20J05d9kNNebmVtL5WCLfd8x00aPbhQk7XjGNPXc3leXRwQ3/ZzzhRvoRiZlqvtl36dqd5XvZU1yq4qeJt6HIneHQ02VumYJOE2CDxKdY896CJI5fPddoqXMC0UI9NCPVwdXqxtHcxbji72XzntpAvbUrHalMUG8vMVp9/ftNwf2ngk+hLZ67krr/mOvJ6+hYQ3EkaNq6UD2fd4WGvfC0RCmJbtQqYmV/XOFWgEPN+0zYX0XYRq459qPXVDTHHO7o4GjUNeqol/X/F3fFmlh/FrJFQnkfd/BiONGtp+js4erg5pa1oopnnL5nMXHWzvpObJJ4rmLjjujgb7d0eDN1Ko89LRaZYxDbmcz+eaUWnBCNOynbbdIuNGtB7t1pqw1t/0h4B3U6R3R4MdGa1+oR9r+jxHpRVhWjbCtGAyJeVzAQg5tWdtBPXs6ySjVbf+6Cp3f+lo6wg8rW0dvPHsrnTCFG/ZCFP4BOLm2tZBqOnemG3jmnj1psM1FZD9kP+rqupXE88aTfn2Krb2eUVkhGnhpIjo0uNV+BzinFPpuOPzvDSdrHJSiXQMyqIgpwQyvTvy+FMvXXV86a9j6ayEKdMj3fK98B/LNJm2rhvEV4vGAQaeBwJY2zrYUFjr5PMBM2GazZl2KXq4Ojz1LKDZDDHNZaAfbCXN1WkPlyG5ATz13KBsURwAABnOSURBVObEqBSPcprm5axNP769T111b4hA7aofbCXdgajQzNeFwqHojErxiDDFI7m79l2j/BgoUHcjj1DnEqQUlWRKPqe+QXrGqNQEE+8BBUio0ziZI1SguhHAzxGKki6lJyxBmiE3tbu2dTBT6Js892w7iL9lc/wmYYrv5OgojRGgC9RT7aIk1xlJ2u29l6lfrUYJ11VVHbkGDO7xWSPNkxQbaUztOmOOWlMRonCxE1Z68/KhNOLh6nAsp2b4XnBcz1/XTH9Xu4evFCZ9n9rpj2aDll/KG2PB+a4/mj0YeB7Zke0vvsVGC67oiK1P+IGJML0/37vpDae+DxO6yXlJ3HTvHwp/76YE6jjkxcdoL99KRrwaoyBNRW1Dk9mRsec+0ro5Z/qaY+IzzTQv/kVGklodfNxI4Ova1sFFiOYOxpkLecM3HupkhmWmGKTODm0DVWlcE0x8pglTPEtGkppbUtzMwR+uOEnWrkpgrdIzxVNuVuamdN3NW1VVv3m2CHzqV6p31WWzZmopTK99H6A3nJY28gltX+N9ecJVUf4poZr7++VzKk8IWVcou5GohOjvAZZ9TlgnxTKWwlRj6iSbuxwLZDprO0CgVhKqbqQ6W9s62M9xtOp69Bo6NPs6xwYU7oZsbetgsrZ1cCMj0RC1E24/qca2MfxbNtO8Vqp5YZQLVKmEvFGqhHzKFeh8lXXVW5kanWU0CphIQZfmdGMr/dHsjQR80lyFuBQBbQf6TNZdK+2/xvO837/78z0KkJ7QuLsIeVh1sWoj1NBTlm9lxPo1o9d6YCFIF5XVLlANPBdfu7L1KkaQblNwFEZvOM1qJjG3aV4EIhW+G4GmfLMkwWVpajWnQA3thCANTmOK18oxjdmFKQVIAQVeQ83RRYTR06oI1Ne5YqNdghSryG2alwtEYO4C83B1OOjwJJck9EezSYcNG15rs0igvuwTxUbRaCzLmelglts+U06OiUQuOJ+Mbf0woT+a7bzSKOBaXjvtfZ/XctrNhjz+MgTqj9wNyM8PV4cccJAWM2Fqppr3/nzvQqGloIVCj2K4C4+cwKFxnFUW+qPZxiv7Oedy4Pjj6yZhNvC8S3ePNav3GXan3vRHj5M935b87xaBur2o8pXns6iU9bk5/Uue12kCXZfcLMs+07rRaYxMzbxnaw8Pdvpq94ZTjSfz8/35XjEt06xw/Xerqvqs9XQerg7XUnwd+qPZ7JUbi6jnpPZHs91XArWqbf/YVzia7Dlu1DfW+rulMYPGflL3vHbpatSN3nCq8T6+dwMxC3+PtWlejcospq064E6bcUeYWaqui63BOulR7HNS5fc1mfL9I1CQVjJj9M3daMgJP12by1GDA4K0Uxo3RGZGpjn25mWvaUfc+Y4PV4eL80aLCtUm66R3R4NODpNuGKgxLKaVuzx15URCdMy0bne09phamoW0FqYad4mMTDvm7vZLCtWG66SdHttlKFDXZa045gh1LiH6k2x54fzk7mm8/69VrUdlLUzZa5qRWqj+LBez7Cp/a40Zlu0n3bVwCLmxQI1RSXwtRwluEKLmaFynTb2f1nrzagzZCVNjpHvS49496au6LSM1aw0N2miyTmqmC5JU+W5oFou1tF7rW6zpVm5ujuVzB5s0tjGaen+thanGnca6m4+30vwYP5J9fI9TotJAf/ET4rSPoKRSdlnRTmfrpK+wUlfwsT+ajT1H7YvDER5/GH0mQ2PQY+oabypM78/3bhT2mlbyRlGlZ5xUUn5/n+QYto0UishkzW/ZyTadr5M+R0allm5c3A3JeMX/zUT+NzOKiJKlEaamrvEWj2C7VPiyE6YJklHFjfX3Ttb6jlNYJ32GtZHyzqph+nB1mN25rCWRSl6NJR5T3y+LW2M0XiDWTRFSUuukT1j7btA5qzwqn0E3k2nplSNMgRU0WCe9NLpOumBubdpIIwfEo7GMY27LncVp3guFSkPudvEvsl7osyb71ytTkibXST3drniD+6bF94+94WXJbltMZTRMVcqde8PpgB69qDVu349wk7WzaBifkeO7o0HjNU3XNL+qqt8zew2gSyNMzV3bzU3zypYWjc39tBUsnLStm0mj99BB+uXuaEDRG7CEFB9pnO5FmDZE8wZ4kabzv0U8lm+Ds0GBV2kVH5m7cbUaphovFGFaqP5odvxK0/kQPnLYNvAqjRnDa4svc84j002tkwmQjv5oFupMziY2X2l4D5ROI0xN1sLkHKYV66ZlkWrdVbvpaPsggQ7g3zS2ZhGmTclmXI3jdQjTsoyNNM8fM90L/MjtsFB6SQjTFWm8YIRpISS8uprefWo9wGkoQOpUrscWi48q42Gq8YKxbloOa80SCFPgR1l2Plqw2LRhQevuY1vON0QEsm65LZ2GBm2729wdDVb94lmbhdh0o+UMmzh0Tlo6+pyH6ZaRZndHA5q6xJVt8VFlOUxd9yKl49gI0wjkAhejy9BLNA4b1sbpRWHsahSy9EezWzm04JibnrBkvVSjnsHs98nyyLRSOo6NddOApEn5Mf2Qs7UhLQKbSml62zX0+CoFY7uGT/rJgdYyDGHa0oVCmLp10w1rx/XkQEaj3xL9Uy5XmUouuOfsR0OFXaG4EdNv/dHs5O5owFp3GCrNGqTdrEmWC5Aq5XVTKEo8SEum0fdam5V1sI/SPQuKpAhUY3+p6SUT02GqWAKd27FYnZIG8gRpmqwVcMyNrVcSqPq0BjOEqaczhcdgZKpEqnW52KTL2gXJ4gXyo9wwQkf266VVImGq8QKu94ZTAlWHlS5DaMdakY3Vop9julip0QjTS8vrpVVBYVox1etPRqW5F6NkTfZWWtn4fnt3NLA6y0EXKwUlbIlZMB+mbr+pUp9ewtQfDdzzYOV97PpQgtfwefendUNifttSCiPTSumu5K1io+VSMVWeARmdfun4LzkzPCpdeCuzMWhPYxAzl0GVaamEqdZdCdM2fmjMkIm7o4EbFZ509NdcJ/Rd5AayJRm8vFV4qCSaaSQRpvfne1ovJlO9La3YBQcJkAYFsQPVrdduJ9S+j5Fpe1o3TEm05ExlZFopbZFhqheokUD9RakuYRnXLOKL6zpFH9xiaA1ekhiZWm8nWOde0A8Kj7NLYUFU7gI6lh6+bDUwyPWk7Y9mF3Lx0z6s4Fb2JU8UQ3S/xWdpIH14EYHiFO+Z9S0xC6mFqUbXnR3CND6Dx10NJECayvpGQILuuLa/ciBTnG2mOW8WP3dHA/We2G0+S/0Rp61FVkwV70IyYeruTnrD6bXCXfPjVG8K1WEIal2pX2h2JFg5Og4+iuh6VJfSmmml2MaOkWl+LE4FcVIRitMbTneUpnivUzrtK7UwpaoXL7F2BzsPMcUJJEDr+ppUD/CkwlTuUq4VHsr16mXPaV7oOQt0TI5bK6qKdyGlAqSFiWIhEqefZMKNAvuj2aWhddAiPlvSIeh7kdLd0cB7huDJnuYZW2mSsqPUi/cypSneKtEw1arq/dAbTjdSe8OwlOvq87uBl+hSI1Qsk8AbP7156Y9mc7mRGK8SglJBPHnuIAW5Sdo3WBGOf9OqR0nuZjS1NdNK9hxpNHCoaC+YFwmwo47/qHnun6v+aLYrNy3PzQK4UcnIjShlb3GTxxtIsdZLJxK53/OH/F4YJXtLtfYoJ7dMklyYCnr14ll3R4N9pXX1tnZzLjySQ7ObzAy5as7T184Elf/+ouHU4DfaWpqmNSpNplFDXZJhen++dywjAF9vKUTK0nYHgeo+j59cN6HMX9vJCv/u2wYX2MmKa2zUORikXHiU5Huc6si0YnSKl7i1urujwSDilO+1NG/P+kIvo9JV9w++9v1a9bD5t02njxGVVuHRXPFgk6hSDtNV7pCXeecKkcI8RXRJpnx/Cngyyq2MRgeFFMe0CbEXzwT1mLJlqtcerYPek70hTbGa95FrB9gbTm+VOm2MGaHmSdYvd/uj2b7cPW94Xozd47ngvKC6tLEN5W5QHJhgSG84dd8njetwpThIii7ZMBUTpZMgPvaG0/0UF73RTK2RO+Lje5U3rVFpcntL61Ke5q2UL4706wWWa3Ohmy8Zwbcd2dOE3whZItNqlJL0zW7SYSojSa31MMIUWO60RRX9i8UkMluw6p7x29wbYiRGa1Q6l10ayUp9ZFop3s3QrxdYQsJvlYvnvMFN6v6KAc1NrxEyKl21GvslyS/BJB+m9+d7F4p7CrXusoAs3R0NJg1ng+ayXWjpeqkUiDUNyC8F7ONNiebgI9nCo4UcRqaV4htBEwfgFXdHA/cd+bRkRHkpQdpoTVT25/4s/7vnuKr9X+6OBtzsGiFNGjQ7HiXfNSz1at5Hbq69N5yu2knlJWOqPoHlJACPZa/oYqvRjWwZWvnCKMG7LQ0ZtmvbXy5YIzVpX+l6W+UwKq1yCVPh3pDPCo/zODpNfTEciEGCTi3sJFTZv2uY8qj0VpbqkpfLNG+lfHfDdBIAPE9zVJrNtTabMFXeJsPaKQA8oTwqTX47TF1OI9NK+S6H0SkA/Ii10hdkFaZSEaZ1cDijUwAQ2qNSwtQ+1k4BQJ/qqDS3XuhrDw8PBp6Grt5weqHYL/LX+/O9rO6g2pAtEL+n98wBL1/Y3/q929Gfig/5Uw57S+tyHJlW2munMr0BAKXSvKae5BakVa5hKvuWXuqmsqp1+oF+308IlCa7i/6qesPpQLEHb5Xr8lmuI9NK+Q3bl2mO0mn1QAZSQQMJ3TqULEelVc5hGmB0Wvy6CedIojC3TfsL56o3nO4o1p9UOV9Hcx6ZVspv3MfecLrd4N/LWfGFWCgKLUUZlTaWdZgqj06r0sNEGphrdZkCLMtuH+SqesOpG4y8VXq4JmfbJi33kWmlPDrd7A2npRcjjVc8zBlI0eS1s1hzJjUimte67PaVPpV9mMroVHM0VfRWmRUPcwZSdMne0krrSMuqlFF+CSPTSnl0ul769I+cZXlk4KkA2lzF+k7Jr6rUhnxQfMjsR6VVrh2QniOHh48UH/J9LufwtdUfzdwI9Wuazx74Fxek24VP776R7UBaa6XuvNIithWWMjKtAqz1FV/pd3c0cDco790XxsDTAXy4toGDkoNUaBYdVSVtKSxmZFr9fdelPZL6cn++V/rayqP+aLYb4IsIhObqKcZSC1A06XT0h+JrcHl/vlfMdsKiwrT6+wNzo3zB//n+fI8uKaI/mrkvpPsCuX/SNQoWzaQByQUj0X/0hlP3umwqPmRRS2H/NfAcYttVPv3kWIIDf0/9zmjBBqRF9pRqBulJaTUlJa2ZPgrQyGFTPogAkByZ3v2s+Lyzb9DwnOLCVOwqP95n+UACQGq0iynHJWyFearIMJX+kF+UH7b46l4AaQkwvXt9f75X5D78UkemlVTham7p2JS9rABgnjRn0JzerUrujlZsmArt6d4RJ8sAsE6aM2jPph2V3Mim6DCVN/5M+WFPS+7dCyAJE+UtgvPSz3wufWRayehUszPSOuunAKzqDafumvdR+entllh0VFd8mMoHQHu69wNHtQGwRnYdaNd2nN2f752W/mYXH6bV34F6qrz31PnKdhkAVtTWSbWOVqtK3VP6HML0H9rTvRXrpwAMmShvg6lkT2nxfY0rwvQf8oHQvsN6y/opgK4FWie9LHVP6XMI05r7873jANW9H2g3CKArgdZJ56Ufov4UYfpvIaZ7P7P/FEBsssx0qrxOWlG9+2+E6ROBqnsrWT+lIAlATKcBzhimevcZhOkz5INypPywj/tPKUgCEIO0N32n/KtuAw02kkeYvsytc14rP+YmBUkAQpOCo1GAX8P07gsI0xcEnO79QEN8AKHIctK3AA//peTeu68hTJe4P9+bVVX1a4CHHsmdIwCokSANEXiXctIWXkCYvkL2UWlvl3G+UeELQEugDkcV22CaIUyb2VU++3SBCl8A3iRILwJ0OHJ2WCd9HWHagHyQQtyZuTvIi95wuhHgsQGUI0SrwIp10uYI04Zk/fRTgIdep4cvgLZ6w+lxgFaBFeukqyFMVyDtBk8CPPSmjFAJVACNSavSEEF6yzrpagjTFd2f7+0G2H9aSaDSVQRAI7Ij4HOAV2vOOunqCNN2tgP073XeyZQNALxIgjTEXlJnX5a1sALCtAW5Ywu1reUjgQrgJYGD9EiWs7AiwrSlgAVJFYEK4DmBg9Q1sNc+07kYhKkHuYPTboi/QKAC+C5wkF7TwN7P2sPDQ8rP34TecOoKhz4Eei4nUvQEoFCBg9TVfwzuz/du+Hy1x8hUR6gK34oRKlC2CEG6TZD6I0wV1AqSQrQcrAhUoEyBg7SiclcPYaqk1nIwxJaZikAFyhIhSD9RuauHNVNltSOQtE9uWDjjgF4gbxGC9IjKXV2MTJXJlEnID+kHWg8C+ZIWgSGD9IQg1cfINJAId5bXUjjACBXIRMCm9QvsDgiEkWkgshYRqqlDJb18Z5yHCqTPzTRFCNLrwLNmRWNkGphM2YRoRr2wKG2nIg9IUOCDvReYyQqMkWlgch5giGPbFlyh0x8yrQwgIbWCRYI0cYRpBLJGETJQnW8yCgaQAII0L0zzRhRhTaSS0N7nywPYFaFAsSJI4yJMI4sUqHyJAKN6w+mkqqpR4GfHNSAywrQDkQKVwiTAECk0codivAv8rAjSDrBm2oFIa6gUJgFGyProjCDNFyPTDkWa7qlYRwW6Ize0k4AtRhcI0g4Rph2LVIhQLQ7/ZdoXiEOmdScRlnQqgrR7hKkBEQN1LiNUTooAApJp3ePA214WaBFoAGFqRMRArZj2BcKJOK1bEaR2EKaGRDi+rY5pX0BR5GndimPUbCFMjYkcqM6v9+d7k2ReIMCg3nC6LdO6byM9Ow72NoYwNShS4+u6Sxml3qT4egFdinCYRR11D0YRpkZF3OC94L6kY0apQDORi4wqGrHYRpgaF6lbUh2jVOAVkUejldQ47PC9tIswTUBvOHVFBl8jPlNGqcAzOhiNOmdyg0v1vWGEaSKkwOE0YmFSxSgV+Jssu4wjdSyro2I3EfTmTcT9+Z4rSNqW6Z5Y3Hrtn5yTipLJjewscpDOpWKXIE0EI9PEyB2ym2b6EPmZ38oo9SL5FxFooDecbsi+0S6+azsUGqWFME1UBwUQC2dSms/UL7Il36/9yMsqlSyt7LA+mh7CNGEdraNWMgXl7tgnfOmRk95wuiOf7VjNF+q+3J/vsaSSKMI0cR3sR627lapfNpAjaVKlO+noezSX0ShLKAkjTDPR4bRvJUVR+1wMkBpZFx1H3stdx7RuJgjTjHQ47btwKSNVQhWmyYzOfoc3oBXTunkhTDPTYbVv3YmEKkVKMKUWol0UFy1QGZ8hwjRT0jVp3OEFoyJUYYWREK3oZpQvwjRjsh50Grn12XMIVXTCUIjOJURP+STkiTAtQMfFSXVnsp2G6S0EJTeSuwZCtKLIqAyEaSE6atD9kksJVe7SocpAdW4dB0YUhDAtjKFRarXYp+qmorlrhw+pZB93tE/0OXQKKwxhWiC5ez82dOGZy/OZcPFBU7IeuiMh2kXHouewNloowrRgRip+n3J39MdcjPASWbLYlyC19Nk9kmldZlkKRJgWTu7uJ0bWmOpupRKZ0Srqo9B9I+v+dXQAA2GKv8ma08TghaqSgqVj1lbLI43ndwyOQisKjFBHmOIHRqd+604kVJkGzpRM4+5KgFpZC33qREaj3NzhEWGKf5EpNReoI8OvzlymgQnWDCQSoBX9p/ESwhQvMlj1+5LvwVpV1QWjhTQkFKAVxw3iNYQpXmV8PfU5riL4QkatFC8ZITMe24bXQJ8zlyI4TnfBUoQpGusNp7vG9vQ1sagKvmDUGp+MPnckRK3PcNTN5QZywmcGTRCmWFmiobpwvQhWwlWfhOd27SeF0edTFBdhZYQpWks8VBcW4TqTcGVauCGZtq2HZ0ojz+dwuhFaI0zhLZNQXZgvglX+eXN/vjez8dS68yQ4B/KTw/tdEaLQQJhCTWah+pTbEnEjPy5o/8oxZGuh6X42av85xenaZRZroseEKDQQplAnobqbwbRfE7cSsC5Y/6r988biRboWlpWMMuv/LOH9orAIQRCmCEa21LiOSh8Kf5WvJWCrWthWL/zfz3H//ZsGv2fw5N+r/985ji5XwT5RBEWYIjhp/rAvo9WSL+iI70xGoXQsQlCEKaIxev4k8sP5uIiOMEUnZAp41+DRb0jXpRQUMZWL6AhTdEpGq4uCpVTaFcIORqEwgTCFGYk1Pke3zmQUyolBMIEwhUnGD4VGNzgkHmYRpjCPYC3adS1AmcaFWYQpkkKwFuGsdjYtAYokEKZIllQEL473ongpXfPaMXlM4SJJhCmyII0h6uHKqNW2y1p4Fn+QANJHmCJLCR9KnSvOkUXWCFMUQaaEt2vHiDFyDeuydpQd4YnsEaYoUm1aeHHEGKPX9q4lOB9/6IOLEhGmgJCp4cU5ntuctPKsy9qRcwQnIAhTYIknh2W/kZB9k3n18NMzWi+sns8KWEGYAi3JVHH9p37wtuVR7aX880Z+vh9qTmUt0A5hCgQmxU8Li/Cte3qodxtPp1sXAbkwowgICIcwBQDA0394AQEA8EOYAgDgiTAFAMATYQoAgCfCFAAAT4QpAACeCFMAADwRpgAAeCJMAQDwRJgCAOCJMAUAwBNhCgCAJ8IUAABPhCkAAJ4IUwAAPBGmAAB4IkwBAPBEmAIA4IkwBQDAE2EKAIAnwhQAAE+EKQAAnghTAAA8EaYAAHgiTAEA8ESYAgDgiTAFAMATYQoAgCfCFAAAT4QpAACeCFMAADwRpgAA+Kiq6v8BKmMR/YqSCfUAAAAASUVORK5CYII=;" parent="u6aW30XyLuBGbmjHWJuR-46" vertex="1">
                    <mxGeometry x="291.06" y="11.189999999999992" width="57.63" height="57.63" as="geometry"/>
                </mxCell>
                <mxCell id="Xo-5ERLmSCqsP6Ov1QiX-6" value="" style="group" parent="u6aW30XyLuBGbmjHWJuR-46" vertex="1" connectable="0">
                    <mxGeometry x="212.2" y="280" width="136.49" height="90" as="geometry"/>
                </mxCell>
                <mxCell id="Xo-5ERLmSCqsP6Ov1QiX-4" value="&lt;b style=&quot;color: rgb(5, 59, 112); font-family: Helvetica; font-size: 15px; font-style: normal; font-variant-ligatures: normal; font-variant-caps: normal; letter-spacing: normal; orphans: 2; text-indent: 0px; text-transform: none; widows: 2; word-spacing: 0px; -webkit-text-stroke-width: 0px; background-color: rgb(248, 249, 250); text-decoration-thickness: initial; text-decoration-style: initial; text-decoration-color: initial;&quot;&gt;SAP Process &lt;br&gt;Automation&lt;/b&gt;" style="text;whiteSpace=wrap;html=1;fontSize=15;align=center;" parent="Xo-5ERLmSCqsP6Ov1QiX-6" vertex="1">
                    <mxGeometry y="50" width="136.49" height="40" as="geometry"/>
                </mxCell>
                <mxCell id="Xo-5ERLmSCqsP6Ov1QiX-5" value="" style="group" parent="Xo-5ERLmSCqsP6Ov1QiX-6" vertex="1" connectable="0">
                    <mxGeometry x="40" width="50" height="50" as="geometry"/>
                </mxCell>
                <mxCell id="Xo-5ERLmSCqsP6Ov1QiX-2" value="" style="shape=image;verticalLabelPosition=bottom;verticalAlign=top;imageAspect=1;aspect=fixed;image=data:image/svg+xml,PHN2ZyB4bWxucz0iaHR0cDovL3d3dy53My5vcmcvMjAwMC9zdmciIGZpbGw9Im5vbmUiIHZpZXdCb3g9IjAgMCA1NiA1NiIgaGVpZ2h0PSI1NiIgd2lkdGg9IjU2Ij4mI3hhOzxnIG9wYWNpdHk9IjAuOTYiPiYjeGE7PHJlY3QgZmlsbD0id2hpdGUiIGhlaWdodD0iNTYiIHdpZHRoPSI1NiIvPiYjeGE7PHBhdGggZmlsbD0iIzA1M0I3MCIgZD0iTTM0LjQ1OTUgMTUuNDY5N0MzNS42MzY2IDE0LjQyMzMgMzcuNDU4NCAxNC41MDgxIDM4LjUyODUgMTUuNjU5MUw0OC4yNDEyIDI2LjEwNThDNDkuMjQgMjcuMTggNDkuMjQgMjguODIwNiA0OC4yNDEyIDI5Ljg5NDlMMzguNTI4NSA0MC4zNDE2QzM3LjQ1ODQgNDEuNDkyNSAzNS42MzY2IDQxLjU3NzQgMzQuNDU5NSA0MC41MzFDMzMuMjgyNCAzOS40ODQ3IDMzLjE5NTYgMzcuNzAzNCAzNC4yNjU3IDM2LjU1MjRMNDIuMjE3IDI4LjAwMDNMMzQuMjY1NyAxOS40NDgzQzMzLjE5NTYgMTguMjk3MyAzMy4yODI0IDE2LjUxNiAzNC40NTk1IDE1LjQ2OTdaIiBjbGlwLXJ1bGU9ImV2ZW5vZGQiIGZpbGwtcnVsZT0iZXZlbm9kZCIvPiYjeGE7PHBhdGggZmlsbD0iIzBBNkVEMSIgZD0iTTIxLjYwMjggMTUuNDY5N0MyMi43Nzk5IDE0LjQyMzMgMjQuNjAxNyAxNC41MDgxIDI1LjY3MTggMTUuNjU5MUwzNS4zODQ1IDI2LjEwNThDMzYuMzgzMyAyNy4xOCAzNi4zODMzIDI4LjgyMDYgMzUuMzg0NSAyOS44OTQ5TDI1LjY3MTggNDAuMzQxNkMyNC42MDE3IDQxLjQ5MjUgMjIuNzc5OSA0MS41Nzc0IDIxLjYwMjggNDAuNTMxQzIwLjQyNTcgMzkuNDg0NyAyMC4zMzg5IDM3LjcwMzQgMjEuNDA5IDM2LjU1MjRMMjkuMzYwMyAyOC4wMDAzTDIxLjQwOSAxOS40NDgzQzIwLjMzODkgMTguMjk3MyAyMC40MjU3IDE2LjUxNiAyMS42MDI4IDE1LjQ2OTdaIiBjbGlwLXJ1bGU9ImV2ZW5vZGQiIGZpbGwtcnVsZT0iZXZlbm9kZCIvPiYjeGE7PHBhdGggZmlsbD0iIzBBNkVEMSIgZD0iTTguMTQ0MTggMTUuNTYzMUM5LjU4ODYyIDE0LjI3OTEgMTEuODE5MSAxNC4zODEzIDEzLjEzNSAxNS43OTY3TDIyLjI5NjYgMjUuNjUwNUMyMy41MzMyIDI2Ljk4MDUgMjMuNTMzMiAyOS4wMTg1IDIyLjI5NjYgMzAuMzQ4NUwxMy4xMzUgNDAuMjAyM0MxMS44MTkxIDQxLjYxNzcgOS41ODg2MiA0MS43MTk5IDguMTQ0MTkgNDAuNDM1OUM2LjY4OTA2IDM5LjE0MjUgNi41Nzk0NSAzNi45MzAzIDcuOTA1MyAzNS41MDQzTDE0Ljg4MjggMjcuOTk5NUw3LjkwNTMgMjAuNDk0N0M2LjU3OTQ1IDE5LjA2ODcgNi42ODkwNiAxNi44NTY1IDguMTQ0MTggMTUuNTYzMVpNMTEuOTI2MSAxNi45MjA2QzExLjIyMzMgMTYuMTY0NyAxMC4wMTcxIDE2LjEwNjggOS4yNDA4NSAxNi43OTY4QzguNDc1MzIgMTcuNDc3MyA4LjQyMTI4IDE4LjYyNTUgOS4xMTQyIDE5LjM3MDhMMTYuNjE0MiAyNy40Mzc1QzE2LjkwODcgMjcuNzU0MyAxNi45MDg3IDI4LjI0NDcgMTYuNjE0MiAyOC41NjE1TDkuMTE0MiAzNi42MjgyTDguNTA5NzUgMzYuMDY2Mkw5LjExNDIgMzYuNjI4MkM4LjQyMTI4IDM3LjM3MzUgOC40NzUzMiAzOC41MjE3IDkuMjQwODUgMzkuMjAyMkw4LjY5MjUyIDM5LjgxOTFMOS4yNDA4NSAzOS4yMDIyQzEwLjAxNzEgMzkuODkyMiAxMS4yMjMzIDM5LjgzNDMgMTEuOTI2MSAzOS4wNzg0TDIxLjA4NzcgMjkuMjI0NkMyMS43MzUyIDI4LjUyOCAyMS43MzUyIDI3LjQ3MSAyMS4wODc3IDI2Ljc3NDRMMTEuOTI2MSAxNi45MjA2WiIgY2xpcC1ydWxlPSJldmVub2RkIiBmaWxsLXJ1bGU9ImV2ZW5vZGQiLz4mI3hhOzwvZz4mI3hhOzwvc3ZnPg==;fontFamily=Helvetica;fontSize=15;fontColor=#053B70;align=center;strokeColor=#07539E;strokeWidth=2;fillColor=none;html=1;fillOpacity=100;" parent="Xo-5ERLmSCqsP6Ov1QiX-5" vertex="1">
                    <mxGeometry x="6" y="5" width="40" height="40" as="geometry"/>
                </mxCell>
                <mxCell id="Xo-5ERLmSCqsP6Ov1QiX-3" value="" style="ellipse;whiteSpace=wrap;html=1;fontSize=15;fontColor=#053B70;fillColor=none;strokeWidth=2;strokeColor=#07539E;" parent="Xo-5ERLmSCqsP6Ov1QiX-5" vertex="1">
                    <mxGeometry width="50" height="50" as="geometry"/>
                </mxCell>
                <mxCell id="u6aW30XyLuBGbmjHWJuR-76" value="&lt;p style=&quot;margin-top: 0pt; margin-bottom: 0pt; margin-left: 0in; direction: ltr; unicode-bidi: embed; word-break: normal; font-size: 11px;&quot;&gt;&lt;span style=&quot;font-size: 14px ; font-weight: 700&quot;&gt;3rd party gateway API Federation&lt;/span&gt;&lt;br&gt;&lt;/p&gt;" style="rounded=0;whiteSpace=wrap;html=1;strokeColor=#595959;strokeWidth=2;fillColor=none;align=center;verticalAlign=top;fontSize=11;fontFamily=Arial;container=1;recursiveResize=0;collapsible=0;fontColor=#595959;" parent="u6aW30XyLuBGbmjHWJuR-45" vertex="1">
                    <mxGeometry x="672" y="295.5" width="240" height="35" as="geometry"/>
                </mxCell>
                <mxCell id="VGe0GvYc2ACer3DLN0nQ-1" value="SAP&lt;sup style=&quot;&quot;&gt;&lt;font style=&quot;font-size: 10px;&quot;&gt;®&lt;/font&gt;&lt;/sup&gt; Business Technology Platform" style="text;html=1;strokeColor=none;fillColor=none;align=left;verticalAlign=middle;whiteSpace=wrap;rounded=0;fontStyle=1;fontSize=16;" parent="u6aW30XyLuBGbmjHWJuR-45" vertex="1">
                    <mxGeometry x="67" y="14.5" width="303" height="30" as="geometry"/>
                </mxCell>
                <mxCell id="VGe0GvYc2ACer3DLN0nQ-2" value="" style="shape=image;verticalLabelPosition=bottom;labelBackgroundColor=default;verticalAlign=top;aspect=fixed;imageAspect=0;image=data:image/png,iVBORw0KGgoAAAANSUhEUgAAAGwAAAA4CAYAAAAYeR0sAAAAAXNSR0IArs4c6QAAAIRlWElmTU0AKgAAAAgABQESAAMAAAABAAEAAAEaAAUAAAABAAAASgEbAAUAAAABAAAAUgEoAAMAAAABAAIAAIdpAAQAAAABAAAAWgAAAAAAAACQAAAAAQAAAJAAAAABAAOgAQADAAAAAQABAACgAgAEAAAAAQAAAGygAwAEAAAAAQAAADgAAAAAJnBSgAAAAAlwSFlzAAAWJQAAFiUBSVIk8AAAE+9JREFUeAHtXAl0VPW5/+6dyWRfJyGEJQmbAdkXUTjQFhF9Uutrj+DzVAWqtPhKa9tHe3yV8oCjdaH2vWfbg6ceQMQW3xNK0foIiMimrELYArIkZiMh62SdySz3/t/vu5MJk+HOnQlhJCrfOXfu9t+/7fd9/5sQ3aIv1QpItK1RfKlG/HUdrDmKyOPeapZU9eu6BF+eecsmIrdrq/h26vfMknJLwXo754Tq2SK+kzaHx3lLw3oztwSpJEl/V82ueThrmnVLw3otwyS3kKStisW8iB5It/uGCYbd8mG+xehFZxc06l2PU/4ZPZRi8x+XmdRbPsx/QW7+tdCYZfKov3I/nlkVOJ5bPixwRW7uvROa9Q9Jkn/d/mhmqd5QwLBuaBiKmmRGKhJJaI1rqvhlq3rLsOotbzeeCaExCxZvqXN+VnGwmoagg5kSbZIo1SJTnFkiM5hljTZRWoxMUbgW4FibR1B9u4qzSm5wzYkwoQUXrXjeHVmIQT+ZsTIEgXsNTnXtitZ20BIYU984mWJYssIkAaHjsWLI5MSPA3PgeXyBQtiOtdwmhLLc9UTOBaNh65pEXjJmUP94M41MjaK5g+NoXJoFC2qiWDzXoxa3oBosZlGzh/ZWtdP+K05qdCoaM20u46lzi2OsFvrvKWkQBP32fX0+V9BI+WUObXF9z/zPHqz8srEpNLlPtP9jw2tmjh2MasB4LzZ5qNDmokuYRxPG3YjD5lQJRSJF7URSvqq6lrsWDj0bqhNz4EhYi5hR3+ofQz8blUTDU5ASCYMSoyRKjDLTkEQz3Yu6LixceatC/1vUSu+WOKjGoVC1XdFtKcki0Yy+MTQeTAtFd6Zb6BAEotYRRAggqoMxhlEQtJ6Qb/z5ZXZ6r9ROnzW6qQGWpDtWw7B/r1yCWWKHLImVjoVDzxiW73gpxf252Cs7+GUrMsYaTUvGp9B3c+Pg/8JpInQZluAVRxvo1ZPN17aJfkekRdHmf+pLuVjoUFQLxi/YVUt7Kx2aDw0szxq2/TtZNKN/bOCr675n7Vt3roU2Xmihsw0uzfSHsNzh9AVm0U4iZYV90bDj4VTgMp0+jC3RyBQLvXBXGn2jX0y49cMqx36woBo+FYsZKAMsJP1hasNhFneWgbLZ8SZig8eCEEgSNCywj8Ay3b1n9/CT0Uk0JTOa/v1APR2tbiePvrEI3bR3cA4U3CVUes6+OHxmceMyIfnLk8yIlmnZHak3nFncye5yO+2rsINhMGMBRxoAzUNDErhY2DRzYCxlAaAQZhzYnmazMJ9I0ET4xRenWjWTK3MfAXMJec91FOHAGHerQv6tffGQo90dp8xSL6PjB2ACZ+fGd7d+yPKtQIy/3FuDPiD5OkcG/NeDg7vXLzN4UKJJv80IZ24mgWnzhydSnKw/H705as/ALGSVHGD0HlmlFxw/HnQo5OLpFNDisFgAhh8DWYUiNxb8SpuHqtsUcsEcsXZbYO6SoJ194syUBG0J9HtrTzXSJdh9zO8aioapGQn/lYL63SHuY1BSFB2VHWQHOvUnXhxd5+ZfCNd2hCENAC7clgX+IBlj4LmEQwtHJ9ObZxqpCECkG8rsELK0T0jipdafDPsknH70ymipqSFJFsoDbDciGyD7YTj6fwD1fQLz1gSoy/NjZg2B75sCJ5+XFk3p8DEjAFz4eXmzm1YfQyqsg7mB7VstJloUhqAE1uP7x0Yk0cdAcEWA4P6kMcz/gc41u75z9S5683QjfAJRcoyJbktF2AJ0PBioOAfCYDIIL+IRhH57UDy9VmDzAhCdPvwfYZkc6HK/UMTLrUuG7/N/191rs4AJmRoGyPi0ykH/9uEVKgUTvILolcaaVkEX65y07WILscYMSrbQ46OSaUyfGNpY2ER1bW7dNAivBwfK4zOvD81NzoIfizPR5w0BATqb3RBir+J9EbR+DRacx6EVxzkOMc2DwxLoF3dY6faMGO1dsAWdk5ek1WerE4LaUeITpJtWtS7J2x2ibMjXmob1TwgNpzkDYEdgacbsvDszXQeKPVFSUeZSfTst29NOGVjMVgSdahDtiof5vH9wgpZJCTnKIAWm9oul01cc1Ixx+UgKEp753vvOMuwmz6XTGGM6brdCm842UQy4+MzUDMpODh7LWaGVXr9s2CGgsXwAC7aqaUneLl/fPTkDdCAbGFpKaDQ05smxqTQ42awLHnzOlifBC9EAzXJzroolXudIhDY+OsrYb/Kw+AhGT01Io76czurSPvo0qNPZFsrw3LvWFWRCW/kXmulkNSPv4BQHs6iFEF367jJXlyTUQ0JRVjX98nbEWzeGNNBRb/eEbC0H0vbTyVYaBl+341ILncKEShtdSPzy6njNo38j3if6K8fZFPYZ/RODSzBrjQ1Bcip8YhLyl3pkhRaz3ylucGoJaK2MNh79fru0wUW47LVDJxcAiYcdnQFpAIXra/0FFJTIDWYexibxS42/Hrsj4G2Pbs2sEScuG0uTr4cUmIFHoBX3wJTtAvg4Vmmny/BpJ6rsVN3q0R27r67/maXzsTGphj6iEMHpruIWum9YEt3RP86/epfrObcnUyH6b0TaiIk1JiwNQyFNu3QYBjnQkGOXjgJuOGHs086ur4QC6Pkpnr3Y8OzY7V3f9fzOzHCbJ1zR5KIBAAzhUDog/L+MTqG5YF4ZtOxDaFwRpJz911EgyBYgSCNKgDm8Z0iiURFNazYWNJAVGjaxX1xQ5s4bl0av7q+hpo48ZdgMw7yDMWzqgHgaFiKv6YK/1mEYZyGOCSE9b1s2Jt9wgtf5UgMdbYDsa47U0YpZ/brVDCOsXJi2hUBVbBoLa6AVYN65GgftvNhMLZB6rEsXYnP4jdwEzdR1eeF30wawUgkBqm52UU2LGzGfSjFcUYdYQUZnxqC8k4AZ9E2UTj0NGrI2ahrmHaUFebK7cuLpX+9Mp9vSjdNzNggII+yrZoXbko8LSV4JZm3T6/JGPDOz4+Rxbz7VQDMGJ9I3Q0h+sE45bhnTN1Y7WFvH9o2jv59poFMIB7h9H1kQqf5gotV3q3s+X9tO+2AOueIlXH8O7R3RJzj8Xzwlgz5B+UYk+DSpx5yMiFmfDWsyBxaC85xJMWaKRvKAhWLm0CSaOCC4Cfa1e6is1YuAfX0JKlBldblt2fiIMYv77vymoxaS/PJHlWR3ZdL9I4zRm2/Qwc5sWhcDFg/PiKZ1R2rpg/PNmqaxMA/Eu5EhYq8ym5NOX0buEYtxFAtzHLnI4Rmx12RRfP1PHhiPfTqiJpYMbQFDMAzCNRLCtXRmlpbdSEHlGJhpCcKkKZyv4SBnDnE2nagnD8BJR4hzUjHJv7GtiCyzeDgAHV5/w3nUgvI2emlXJV0BkHhwdCpZ4at6QjMBGPogxnMB3u+5xFsrEn1/vJU4BgtGdpjDy/CLDqBEZlg9BKkKptEN1GbBogaj+/OS6S+f1hFvr4QiboXHEG8Jf5PTv82Pi5vh97G9g74kEiewMbX0i2AWjwHxY4dU4qzAJn+GgbwCpq36sJK2nGyAxhkDCP+J6F2Pzoqj38A3pgN6MQO+B0EwopKGdtpzsQnmhqUXC4KjpK6dKsE0I/rp9Ex8FgANQflrHKdRxW6+syEEWnuwhuzw+1i7AoxwWe3zkdcs3zC1OMx34z0Lqmtx0VuHa2gfFu5ISQvlwX/cCzPZDznD4DLetRX/u7H94+nhsVaED23U1yD24jpVTQgTYAa9zPKu/YEiBLLQoBzkKoP1PzAlWovJmpCcjhS1Qutf3V1FB+EvPR6lALKxvO7lye9Hqj+9djt9WOBLRn3FQHvFcPq8yAdgBvrB/4wAmJgOx5yFa0aJ4dKTU/rQWaSRjJKqvANQBcDS1BHI+4xbBXza5UYEx3hv9iYydbt9+ptZ9PPNxRHRsGJo+QYI8VtA00jRFWAjcWV1cVlEAYbeJDWUqPei8xnE6Aog83snnXB4Eg2AJH9w1qYx7G5I/dTBSRRr4JN87WRDO6wJwTMbXI4FYDjAwCMT0+k8mOuGWbQAuQ1FWmzCwISgoMPXx8MT0mnJpuKgWugr151zk8NDm4/X0X6EKfuKWqjN6TkhybSy2mbeRpsevprE7E6jPSgbVMP82/QpEmtdaZ0DPsVBUZD0I9C6e29PpbmT0inXahy3cHtGYIPfs0Cw+Vwys79Xo9Afa1RfbP+wOTbSTq7PnxtMAGIMx4eh6Y60Gte8SpzJb0SMdby0hQ593gIA5qLDOFe3eBhknESwtTKxvX579euzsQ3xxdM1Gubz2cwk3tzTI36sANqeLm+lywAJfbF/lDEhiuKD5Pz02gj2jAUhB/tpfFwPrXggm9oBt42IBe94aSut3V91zSQFFsABVFtW76QSZG7acS3JwGaqOIV01Mo4m3P7pfWznUbtR/JdFw1j8zN9WDINg5/aeKiabHY3zFTw2IQZVwfYzZl5XoTeQJNyE+lgUZPhUFgoKxCMb4GpM/LDXqFFYlFRTsskr4xOycov+a9B/LXTTaMuGpYAX/TUjH50GwLbOwcl0iGgs63Ha6mmIw7yZx6zh6VxbE4CjYN/ibsB2nWjViEPAhcOceIbyhOcJBM0y3MaIrvSJIv8khU3l1k8UGiYd7zsK1i77gCjoqFp945Ko/Fgxn2jUqFBHirCdkohYHl9qzceSgOAmJiLNA7KD8cCsf/pLZQWbwxuOsfJUhfMegJZIBg8A6l8TnLF5Fe8Pim8LY3OxiNzYdYCZ7TNTHpiel/tzF3x+mfC2fPBjrgFe1McNLJNZ+Ly6YD7Cdhy6T2s0oYW3g/bRT70SGOWegYzfZ5i7Nsq/zTdrlfsZjzTTCKnjGbkpdB4aIwesSlMRpqKj0gQC0ElYq0shAxGIUI7si6cwefwgAWlZ+TNolwjbF7NKkTk/iLFpLxf/cq0tp71c2NraxrG5mzRzAEaVL+xzYdujYX8Avbjfr7hvMaEJCRic/EBTEaiRYvBnGBmTbOTygESOKB2uBRaMWcITR2WEhTFhu61o0SghjEsVpSzYOVLHkl9r/aVsb2KWTxqMyd9p49I1nxR2BMNsyCDEtZeI7IBYb5z8AqdRYjAcRYfRwF+GLGyWWbwycljhtqMRNk8V4J5vqDaqG2jd5xl925gdoyPx6mKc7Dvq9ySsrV29YzWLvXnvmPJtqQNFSZxF5SwD6lSBdJnx0rfmnWuS7kI38j8yfFJ5AtX7yin2hAJ1nDHwoL7PweuUBWy7nxtRKw1O0/WERs4zh9y0rcN2QUb8pn1GA+f29rx+UFHMphB3ZbD1VSOGKnHxGPjAfJZVT/DWvzO6TRtCWRW9vwPZmbHp74HZr0Nvv4A5WcKWSzEsSlnwc49/RbsHt7jsYTZgJatb8CivPZBGT366ila+vZFKoS0synqLrEGsKYsXnOW8hEOsD8KoWDUCA2rQJ4O2xQdi2d8ZqYeOm+jGgjD9RKPSdMrH7OEch79v+JwmzfXrZuGndOrlDt/5y9Q+g8InO2wGE+rkngCH2YuQhD9Q0k2/QhNyPi4M3/gvJ3/fLVW5K4AOryNNyIAbmp1U1mtg/ZipzgVjn0CdqCnDU+l3D5x2n0Svq9gU+Uj/rKoGdpQi4Tt0UtNtONEHZWgPpush6Zk0mmkdxhNBiP+zvHdozXavpLM9i9McgJ8FCBdxNSNap2t857Zxao2aDQzTlxEK79v95jfCWRW9rwPH1CF+gR48jeTUP9PlaRvoWwqhwL4Fga/ysdmIT3mkcTvYPr/lLNwx6nSNfd93tlRBC6kAQs/6mBZ19YZGcbhc+sEbJ9b8JUTAxP2L/4LhHlrfoUZ14bFb4Z5Y9/ClIJYiOsHz5OwywDDUYfrdpesCCmio64vpOAvnhxguq3VXQRxWmVXLW8HMit3we4YQZ61GOJA/MHd00RRjYrwvI11OQ5ta8ZO4iC8myKE/BTGfgofeF7Akm0vXT/roe7OpTvlg+J0XsxWbNLxcT3Epq4xghiLd6Lxre71DE2rA+0qkSTl9w6LeWPd6mldAQZKqMI1EunkofjnJq9ZLcmFdY76ATCBUfClbyixUSUmj9siKRKYpD5S9uas/JwFO1aAeUtRlU2FrhJoHffwB8LTEY98vc4VsIerFDn1zUCA4VtPSZjuxLpb8WlU5bHXJ3VIBv7+RJYGm50iT/KIqShrBmcuch1FNe/FKSln3s5xfB8pQhwWqaZ7bbtXYNZelDzSG+XrJwWFmgAXadBCs2wSnVvYuI8TEv0W7MEnXBB1QX+LVtx/4JlaSDR6GGJJoh9uCyI1+87UVKQ66GXt1iPb+1xCc92awk0PG8NMSVSQkPDvGEydKRWYR5hOZRGejwBvXoBJ/o9Lf53dzHN0yiLNBOcIE1kUyTkHh3CR7PXmtN0E77K8vLnuzyGZhfEpsnIQ5RvwBxM5I+cWej+JZp0ymWyWZM8mXFZKwvyfvqkA/nwXxqqhZP19n/meReLcCesj0XivaVOSEENJz5a/cffqcMdUmX34YnbJtAqUf9YeW3UErqMFDDQJRZIu/XG2c8C8/B9JkvlIzoKPZie0uQ61SqZnsBWzLtz2r7ccNIyd2Ff4EAJhkvhV+frwmaUt5ooVqkeWl2FlGpFXfF5gK1wV0U8Je30lv6/YcP8p/CnRLFLdoiXOdEioSl35hllPanUj+MN/1/YV5hfnT9SnS9ffE7Zm+a915bq7z8NXPQMkMQ5/9gsT6bpLSbL24TI5j+8YBPM4Cd/Sb4PnSleFI6Lo0DcuKXv+TmbZV5GEZJJ+WLrunrU9nVz2999PJYvlGTBmkSRHdWwTAGEo7noS8h/LNsxc2dM+btX/iq7A/wPKki+RmWbtrgAAAABJRU5ErkJggg==;" parent="u6aW30XyLuBGbmjHWJuR-45" vertex="1">
                    <mxGeometry x="15.75" y="16.5" width="50.13" height="26" as="geometry"/>
                </mxCell>
                <mxCell id="u6aW30XyLuBGbmjHWJuR-64" style="edgeStyle=orthogonalEdgeStyle;rounded=0;orthogonalLoop=1;jettySize=auto;html=1;exitX=0.5;exitY=1;exitDx=0;exitDy=0;" parent="1" edge="1">
                    <mxGeometry relative="1" as="geometry">
                        <mxPoint x="318.9899999999998" y="539.1700000000001" as="sourcePoint"/>
                        <mxPoint x="318.9899999999998" y="539.1700000000001" as="targetPoint"/>
                    </mxGeometry>
                </mxCell>
                <mxCell id="u6aW30XyLuBGbmjHWJuR-65" style="edgeStyle=orthogonalEdgeStyle;rounded=0;jumpSize=0;orthogonalLoop=1;jettySize=auto;html=1;exitX=0.5;exitY=1;exitDx=0;exitDy=0;startArrow=blockThin;startFill=1;endArrow=blockThin;endFill=1;strokeColor=#107E3E;strokeWidth=1;fontSize=16;" parent="1" source="u6aW30XyLuBGbmjHWJuR-45" target="u6aW30XyLuBGbmjHWJuR-45" edge="1">
                    <mxGeometry relative="1" as="geometry"/>
                </mxCell>
                <mxCell id="u6aW30XyLuBGbmjHWJuR-69" value="" style="endArrow=block;html=1;strokeWidth=2;fontSize=16;fontColor=#595959;strokeColor=#595959;endFill=1;entryX=0;entryY=0.5;entryDx=0;entryDy=0;startArrow=none;exitX=1;exitY=0.5;exitDx=0;exitDy=0;" parent="1" source="u6aW30XyLuBGbmjHWJuR-71" target="c_rrTgVc8QJ4BV_1QRsC-2" edge="1">
                    <mxGeometry width="50" height="50" relative="1" as="geometry">
                        <mxPoint x="108" y="320" as="sourcePoint"/>
                        <mxPoint x="107" y="290" as="targetPoint"/>
                    </mxGeometry>
                </mxCell>
                <mxCell id="u6aW30XyLuBGbmjHWJuR-71" value="End User" style="shape=image;verticalLabelPosition=bottom;labelBackgroundColor=none;verticalAlign=middle;aspect=fixed;imageAspect=0;image=data:image/svg+xml,PHN2ZyB4bWxucz0iaHR0cDovL3d3dy53My5vcmcvMjAwMC9zdmciIHZpZXdCb3g9IjAgMCAzNiA0OCI+PGRlZnM+PHN0eWxlPi5jbHMtMXtmaWxsOiM1OTU5NTk7fTwvc3R5bGU+PC9kZWZzPjx0aXRsZT5wZXJzb24tcGxhY2Vob2xkZXI8L3RpdGxlPjxnIGlkPSJMYXllcl8yIiBkYXRhLW5hbWU9IkxheWVyIDIiPjxnIGlkPSJwZXJzb24tcGxhY2Vob2xkZXIiPjxwYXRoIGNsYXNzPSJjbHMtMSIgZD0iTTI0LDI0YTExLjczMywxMS43MzMsMCwwLDEsNC42NDEuOTM4LDExLjk3LDExLjk3LDAsMCwxLDYuNDIxLDYuNDIxQTExLjczNywxMS43MzcsMCwwLDEsMzYsMzZWNDhIMFYzNmExMS43MTksMTEuNzE5LDAsMCwxLC45MzgtNC42NDEsMTIuMDQ2LDEyLjA0NiwwLDAsMSwyLjU3OC0zLjg0MywxMi4xNzgsMTIuMTc4LDAsMCwxLDMuOC0yLjU3OEExMS42MzEsMTEuNjMxLDAsMCwxLDEyLDI0SDI0Wm05LDEyYTguOTYzLDguOTYzLDAsMCwwLTktOUgxMmE4LjY4Miw4LjY4MiwwLDAsMC02LjM3NSwyLjYyNUE4LjY4MSw4LjY4MSwwLDAsMCwzLDM2djlIMzNaTTMwLDEyYTExLjYzMSwxMS42MzEsMCwwLDEtLjkzOCw0LjY4OCwxMi4xNzgsMTIuMTc4LDAsMCwxLTIuNTc4LDMuOCwxMi4wMTksMTIuMDE5LDAsMCwxLTMuODQzLDIuNTc4LDEyLjA2NywxMi4wNjcsMCwwLDEtOS4zMjksMCwxMi4yMjQsMTIuMjI0LDAsMCwxLTYuMzc0LTYuMzc0QTExLjYxNCwxMS42MTQsMCwwLDEsNiwxMmExMS43MTksMTEuNzE5LDAsMCwxLC45MzgtNC42NDFBMTIuMDQ2LDEyLjA0NiwwLDAsMSw5LjUxNiwzLjUxNmExMi4xNzgsMTIuMTc4LDAsMCwxLDMuOC0yLjU3OCwxMi4wNjcsMTIuMDY3LDAsMCwxLDkuMzI5LDAsMTEuOTcsMTEuOTcsMCwwLDEsNi40MjEsNi40MjFBMTEuNzM3LDExLjczNywwLDAsMSwzMCwxMlpNMTgsMjFhOC42ODEsOC42ODEsMCwwLDAsNi4zNzUtMi42MjVBOC42ODIsOC42ODIsMCwwLDAsMjcsMTJhOC42ODUsOC42ODUsMCwwLDAtMi42MjUtNi4zNzVBOC42ODUsOC42ODUsMCwwLDAsMTgsM2E4LjY4Miw4LjY4MiwwLDAsMC02LjM3NSwyLjYyNUE4LjY4MSw4LjY4MSwwLDAsMCw5LDEyYTguNjc4LDguNjc4LDAsMCwwLDIuNjI1LDYuMzc1QTguNjc4LDguNjc4LDAsMCwwLDE4LDIxWiIvPjwvZz48L2c+PC9zdmc+;strokeColor=#053B70;strokeWidth=4;fillColor=#FFFFFF;fontColor=#595959;align=center;fontFamily=Arial;fontSize=15;fontStyle=1;spacingTop=10;" parent="1" vertex="1">
                    <mxGeometry x="94" y="365" width="21.88" height="30" as="geometry"/>
                </mxCell>
                <mxCell id="aBb4EluXftlLtabgKLQh-2" style="rounded=0;orthogonalLoop=1;jettySize=auto;html=1;fontColor=#FFFFFF;strokeColor=#595959;endArrow=block;endFill=1;strokeWidth=2;labelBackgroundColor=#ffffff;endSize=6;startSize=6;jumpSize=6;edgeStyle=orthogonalEdgeStyle;entryX=0;entryY=0.5;entryDx=0;entryDy=0;exitX=1;exitY=0.5;exitDx=0;exitDy=0;" parent="1" source="QRWAaMgFSjCzo6saS06B-1" edge="1">
                    <mxGeometry x="-1215.570909090909" y="-671.42" as="geometry">
                        <mxPoint x="833.54" y="464" as="targetPoint"/>
                        <mxPoint x="645.02" y="310" as="sourcePoint"/>
                        <Array as="points">
                            <mxPoint x="804" y="373"/>
                            <mxPoint x="804" y="464"/>
                        </Array>
                    </mxGeometry>
                </mxCell>
                <mxCell id="aBb4EluXftlLtabgKLQh-3" style="rounded=0;orthogonalLoop=1;jettySize=auto;html=1;fontColor=#FFFFFF;strokeColor=#595959;endArrow=block;endFill=1;strokeWidth=2;labelBackgroundColor=#ffffff;endSize=6;startSize=6;jumpSize=6;edgeStyle=orthogonalEdgeStyle;entryX=0;entryY=0.5;entryDx=0;entryDy=0;exitX=1;exitY=0.5;exitDx=0;exitDy=0;" parent="1" target="u6aW30XyLuBGbmjHWJuR-72" edge="1">
                    <mxGeometry x="-1216.820909090909" y="-684.8199999999999" as="geometry">
                        <mxPoint x="832.2899999999995" y="450.6" as="targetPoint"/>
                        <mxPoint x="624" y="360.0099999999999" as="sourcePoint"/>
                        <Array as="points">
                            <mxPoint x="803" y="360"/>
                            <mxPoint x="803" y="284"/>
                        </Array>
                    </mxGeometry>
                </mxCell>
            </root>
        </mxGraphModel>
    </diagram>
</mxfile>